<svg width="47" height="54" fill="none" xmlns="http://www.w3.org/2000/svg"><path fill-rule="evenodd" clip-rule="evenodd" d="M38.53 16.654A48.47 48.47 0 0020 13a48.496 48.496 0 00-18.53 3.654C-2.947 30.951 5.417 50.29 20 54c14.585-3.71 22.95-23.05 18.53-37.346zm-14.413 17.51a6.25 6.25 0 002.082-4.668c0-3.447-2.774-6.242-6.2-6.242-3.422 0-6.198 2.795-6.198 6.242a6.24 6.24 0 002.084 4.668l-1.037 9.58c1.643.45 3.37.689 5.152.689a19.41 19.41 0 005.152-.69l-1.035-9.579z" fill="#F00000"/><path fill-rule="evenodd" clip-rule="evenodd" d="M20 13a48.496 48.496 0 00-18.53 3.654c-2.645 8.561-.707 18.932 4.408 26.671-.675-12.702 10.588-19.245 11.434-19.453A6.13 6.13 0 0120 23.254c.964 0 1.878.223 2.69.618.844.208 12.107 6.751 11.435 19.453 5.112-7.74 7.05-18.11 4.404-26.67A48.477 48.477 0 0020 13zm0 31.433c-1.782 0-3.509-.238-5.152-.69 0 0-.748 6.701.798 8.607A20.956 20.956 0 0020 54a20.887 20.887 0 004.357-1.65c1.545-1.906.795-8.606.795-8.606-1.64.45-3.368.689-5.152.689z" fill="#F00000"/><path fill-rule="evenodd" clip-rule="evenodd" d="M.73 30.099c4.3-15.705 34.243-15.705 38.54 0 .754-4.567.563-9.225-.74-13.445A48.472 48.472 0 0020 13a48.496 48.496 0 00-18.53 3.654C.167 20.874-.025 25.532.73 30.1z" fill="#F00000"/><path fill-rule="evenodd" clip-rule="evenodd" d="M22.69 23.147A6.141 6.141 0 0020 22.53c-.964 0-1.875.223-2.688.618-.828.203-11.679 6.503-11.462 18.726.211-11.749 10.649-17.8 11.462-18a6.128 6.128 0 012.688-.62c.964 0 1.877.224 2.69.62.81.2 11.248 6.251 11.46 18 .219-12.223-10.631-18.523-11.46-18.726z" fill="#F00000"/><path d="M46.369 11.909l-1.774-1.841c-.42-.437-.765-1.301-.765-1.92V5.544c0-1.239-.975-2.25-2.167-2.251h-2.509c-.595 0-1.428-.36-1.849-.796L35.532.657a2.117 2.117 0 00-3.064 0l-1.773 1.842c-.421.437-1.255.794-1.85.794h-2.507c-1.191 0-2.167 1.012-2.167 2.25v2.605c0 .617-.345 1.483-.765 1.92l-1.774 1.84a2.32 2.32 0 000 3.184l1.774 1.841c.42.437.765 1.303.765 1.92v2.604c0 1.238.976 2.25 2.167 2.25h2.508c.595 0 1.428.359 1.849.796l1.773 1.841a2.118 2.118 0 003.064 0l1.773-1.841c.421-.437 1.254-.795 1.85-.795h2.508c1.192 0 2.167-1.013 2.167-2.25v-2.605c0-.62.345-1.483.765-1.92l1.774-1.84c.841-.877.841-2.31 0-3.184zM32.28 18.563l-4.78-4.965 1.532-1.59 3.248 3.373 6.688-6.943 1.532 1.59-8.22 8.535z" fill="#fff"/><path d="M44.466 10.145l-1.5-1.569c-.357-.372-.649-1.108-.649-1.635V4.723c0-1.056-.824-1.918-1.833-1.918H38.36c-.504 0-1.208-.306-1.564-.678L35.297.56a1.783 1.783 0 00-2.593 0l-1.5 1.57c-.357.372-1.062.676-1.565.676h-2.122c-1.008 0-1.834.862-1.834 1.918V6.94c0 .525-.291 1.263-.648 1.635l-1.5 1.569a1.986 1.986 0 000 2.711l1.5 1.569c.357.372.648 1.11.648 1.635v2.218c0 1.054.826 1.918 1.834 1.918h2.122c.504 0 1.208.304 1.564.677l1.5 1.569c.713.744 1.88.744 2.593 0l1.5-1.57c.357-.372 1.061-.677 1.565-.677h2.123c1.009 0 1.833-.863 1.833-1.917V16.06c0-.527.292-1.263.648-1.635l1.5-1.569a1.988 1.988 0 000-2.711zm-11.921 5.668l-4.046-4.23 1.297-1.355 2.749 2.874 5.659-5.914L39.5 8.543l-6.955 7.27z" fill="#fff"/><path d="M45.466 11.703l-1.5-1.5c-.357-.356-.648-1.06-.648-1.564V6.517c0-1.01-.825-1.834-1.834-1.834h-2.123c-.504 0-1.208-.293-1.564-.649l-1.5-1.5a1.839 1.839 0 00-2.593 0l-1.5 1.502c-.357.356-1.062.647-1.565.647h-2.122a1.839 1.839 0 00-1.833 1.834v2.122c0 .502-.292 1.208-.648 1.564l-1.5 1.5a1.84 1.84 0 000 2.594l1.5 1.5c.356.357.648 1.062.648 1.565v2.122a1.84 1.84 0 001.833 1.833h2.122c.504 0 1.209.292 1.565.648l1.5 1.5a1.84 1.84 0 002.593 0l1.5-1.5c.356-.356 1.06-.648 1.565-.648h2.122a1.839 1.839 0 001.834-1.833v-2.122c0-.505.292-1.209.648-1.565l1.5-1.5a1.841 1.841 0 000-2.594zm-11.921 5.422L29.5 13.08l1.296-1.296 2.75 2.75 5.658-5.658L40.5 10.17l-6.955 6.954z" fill="#EF0000"/></svg>