<svg viewBox="0 0 54 55" fill="none" xmlns="http://www.w3.org/2000/svg"><path d="M52.6 23.533l-3.733-4.266c-.8-.8-1.334-2.4-1.334-3.467v-4.267c0-2.933-2.4-5.066-5.066-5.066h-4.534c-1.066 0-2.666-.534-3.466-1.334L30.2 1.4c-1.867-1.6-4.8-1.6-6.667 0l-4 3.733c-.8.8-2.4 1.334-3.466 1.334h-4.534c-2.933 0-5.066 2.4-5.066 5.066v4.534c0 1.066-.534 2.666-1.334 3.466L1.667 23.8c-1.6 1.867-1.6 4.8 0 6.667l3.466 4.266c.8.8 1.334 2.4 1.334 3.467v4.533c0 2.934 2.4 5.067 5.066 5.067h4.534c1.066 0 2.666.533 3.466 1.333l4.267 3.734c1.867 1.6 4.8 1.6 6.667 0l4.266-3.734c.8-.8 2.4-1.333 3.467-1.333h4.533c2.934 0 5.067-2.4 5.067-5.067V38.2c0-1.067.533-2.667 1.333-3.467l3.734-4.266C54.2 28.6 54.2 25.4 52.6 23.533zm-14.4-1.6l-12.8 12.8c-.267.267-.8.534-1.333.534-.534 0-1.067-.267-1.334-.534l-6.4-6.4c-.8-.8-.8-2.133 0-2.933.8-.8 2.134-.8 2.934 0l5.066 5.067L35.267 19c.8-.8 2.133-.8 2.933 0 .8.8.8 2.133 0 2.933z" fill="#5B00CE"/></svg>