<svg width="30" height="30" fill="none" xmlns="http://www.w3.org/2000/svg"><g clip-path="url(#clip0_607_993)"><path d="M6.686 7.85a.938.938 0 00.85.54h4.558V10a.937.937 0 101.875 0V8.39h.432a.938.938 0 000-1.875h-.432V.89a.937.937 0 00-1.656-.601L6.816 6.85a.937.937 0 00-.13.998zm5.408-4.38v3.045H9.543l2.55-3.046zm4.744 19.913l4.912-7.668h-3.617a.938.938 0 010-1.875h5.33a.937.937 0 01.79 1.443l-5.836 9.112a.94.94 0 01-1.296.285.938.938 0 01-.283-1.297zm4.908-17.227a.937.937 0 010 1.326l-13.82 13.82A.937.937 0 016.6 19.976l13.82-13.82a.937.937 0 011.326 0zM5.303 4.192c.237-.869.087-1.523-.447-1.946-.598-.473-1.593-.557-2.266-.19-.51.278-.737.759-.673 1.43a.937.937 0 11-1.866.179C-.086 2.239.512 1.052 1.693.409 3.02-.313 4.838-.159 6.02.776c1.129.893 1.527 2.318 1.092 3.91-.293 1.075-1.298 1.858-2.46 2.766-.628.49-1.306 1.018-1.874 1.611h3.884a.938.938 0 010 1.875H.957a.937.937 0 01-.844-1.346c.764-1.573 2.156-2.66 3.384-3.618.824-.643 1.676-1.308 1.806-1.782zM30 15.05A15 15 0 014.393 25.656 14.902 14.902 0 010 15.049a.938.938 0 011.875 0c0 7.237 5.888 13.125 13.125 13.125s13.125-5.888 13.125-13.125c0-6.57-4.905-12.165-11.41-13.014a.938.938 0 11.243-1.859A15.002 15.002 0 0130 15.05z" fill="#404346"/></g><defs><clipPath id="clip0_607_993"><path fill="#fff" d="M0 0h30v30H0z"/></clipPath></defs></svg>