<svg width="32" height="32" fill="none" xmlns="http://www.w3.org/2000/svg"><path d="M7.686 8.717a.938.938 0 00.85.54h4.558v1.611a.938.938 0 001.875 0v-1.61h.432a.938.938 0 000-1.875h-.432V1.757a.937.937 0 00-1.656-.602L7.816 7.718a.937.937 0 00-.13.999zm5.408-4.38v3.046h-2.551l2.55-3.046zm4.744 19.914l4.912-7.668h-3.617a.937.937 0 110-1.875h5.33a.938.938 0 01.79 1.443l-5.836 9.111a.938.938 0 11-1.579-1.011h0zm4.908-17.227a.937.937 0 010 1.326L8.926 22.17A.938.938 0 017.6 20.843l13.82-13.82a.937.937 0 011.326 0zM6.303 5.06c.237-.87.087-1.524-.447-1.947-.598-.472-1.593-.556-2.266-.19-.51.279-.737.76-.673 1.43a.937.937 0 11-1.866.18c-.137-1.427.461-2.613 1.642-3.256C4.02.555 5.838.709 7.02 1.643c1.129.893 1.527 2.319 1.092 3.91-.293 1.075-1.298 1.859-2.46 2.767-.628.49-1.306 1.018-1.874 1.61h3.884a.938.938 0 110 1.876H1.957a.938.938 0 01-.844-1.347C1.877 8.886 3.27 7.8 4.497 6.842c.824-.644 1.676-1.309 1.806-1.782zM31 15.916A15 15 0 015.393 26.523 14.902 14.902 0 011 15.916a.938.938 0 011.875 0c0 7.238 5.888 13.125 13.125 13.125s13.125-5.887 13.125-13.125c0-6.57-4.905-12.165-11.41-13.013a.938.938 0 11.243-1.86A15.002 15.002 0 0131 15.917z" fill="#5B00CE" stroke="#5B00CE" stroke-width=".2"/></svg>