<svg width="27" height="21" fill="none" xmlns="http://www.w3.org/2000/svg"><path d="M26.845 6.858a.695.695 0 00-.536-.255h-2.628c-.648-1.71-1.493-3.386-2.453-4.018C17.906.399 9.095.399 5.773 2.585c-.96.633-1.802 2.31-2.454 4.018H.691a.69.69 0 00-.676.832L.404 9.32a.691.691 0 00.677.55h.778a4.671 4.671 0 00-1.12 3.052c-.005 1.35.507 2.569 1.444 3.431.01.01.02.016.03.025v2.638c0 .572.465 1.037 1.037 1.037h2.424c.572 0 1.037-.465 1.037-1.037v-1.06h13.578v1.06c0 .572.464 1.037 1.037 1.037h2.424a1.04 1.04 0 001.037-1.037V16.43c.994-.91 1.469-2.163 1.475-3.413.004-1.13-.377-2.262-1.172-3.147h.83a.688.688 0 00.677-.551l.39-1.885a.698.698 0 00-.142-.576zM6.912 4.316c2.648-1.742 10.528-1.742 13.174 0 .515.338 1.176 1.702 1.783 3.372H5.13c.605-1.67 1.267-3.033 1.78-3.372zM3.81 13.183a2.04 2.04 0 114.079 0 2.04 2.04 0 01-4.08 0zm17.365 2.04a2.04 2.04 0 110-4.081 2.04 2.04 0 010 4.08z" fill="#5B00CE"/></svg>