<svg viewBox="0 0 46 52" fill="none" xmlns="http://www.w3.org/2000/svg"><path d="M34.875 5.9V2c0-1.025-.85-1.875-1.875-1.875S31.125.975 31.125 2v3.75h-16.25V2c0-1.025-.85-1.875-1.875-1.875S11.125.975 11.125 2v3.9C4.375 6.525 1.1 10.55.6 16.525c-.05.725.55 1.325 1.25 1.325h42.3c.725 0 1.325-.625 1.25-1.325-.5-5.975-3.775-10-10.525-10.625zM43 21.6H3a2.507 2.507 0 00-2.5 2.5v15.4C.5 47 4.25 52 13 52h20c8.75 0 12.5-5 12.5-12.5V24.1c0-1.375-1.125-2.5-2.5-2.5zM16.025 42.525c-.125.1-.25.225-.375.3-.15.1-.3.175-.45.225-.15.075-.3.125-.45.15-.175.025-.325.05-.5.05-.325 0-.65-.075-.95-.2a2.58 2.58 0 01-.825-.525 2.629 2.629 0 01-.725-1.775c0-.65.275-1.3.725-1.775.25-.225.5-.4.825-.525.45-.2.95-.25 1.45-.15.15.025.3.075.45.15.15.05.3.125.45.225l.375.3c.45.475.725 1.125.725 1.775 0 .65-.275 1.3-.725 1.775zm0-8.75a2.629 2.629 0 01-1.775.725c-.65 0-1.3-.275-1.775-.725A2.629 2.629 0 0111.75 32c0-.65.275-1.3.725-1.775.7-.7 1.8-.925 2.725-.525.325.125.6.3.825.525.45.475.725 1.125.725 1.775 0 .65-.275 1.3-.725 1.775zm8.75 8.75A2.629 2.629 0 0123 43.25c-.65 0-1.3-.275-1.775-.725a2.629 2.629 0 01-.725-1.775c0-.65.275-1.3.725-1.775.925-.925 2.625-.925 3.55 0 .45.475.725 1.125.725 1.775 0 .65-.275 1.3-.725 1.775zm0-8.75l-.375.3c-.15.1-.3.175-.45.225-.15.075-.3.125-.45.15-.175.025-.325.05-.5.05-.65 0-1.3-.275-1.775-.725A2.629 2.629 0 0120.5 32c0-.65.275-1.3.725-1.775.225-.225.5-.4.825-.525a2.497 2.497 0 012.725.525c.45.475.725 1.125.725 1.775 0 .65-.275 1.3-.725 1.775zm8.75 8.75a2.629 2.629 0 01-1.775.725c-.65 0-1.3-.275-1.775-.725a2.629 2.629 0 01-.725-1.775c0-.65.275-1.3.725-1.775.925-.925 2.625-.925 3.55 0 .45.475.725 1.125.725 1.775 0 .65-.275 1.3-.725 1.775zm0-8.75l-.375.3c-.15.1-.3.175-.45.225-.15.075-.3.125-.45.15-.175.025-.35.05-.5.05-.65 0-1.3-.275-1.775-.725A2.629 2.629 0 0129.25 32c0-.65.275-1.3.725-1.775.25-.225.5-.4.825-.525.45-.2.95-.25 1.45-.15.15.025.3.075.45.15.15.05.3.125.45.225l.375.3c.45.475.725 1.125.725 1.775 0 .65-.275 1.3-.725 1.775z" fill="#5B00CE"/></svg>