<svg width="27" height="27" fill="none" xmlns="http://www.w3.org/2000/svg"><path fill-rule="evenodd" clip-rule="evenodd" d="M7.232 22.42h12.536v1.928H7.232V22.42zm0-3.858h12.536v1.929H7.232v-1.928zm0-3.857h12.536v1.929H7.232v-1.929zm14.461 9.643V13.741a.964.964 0 00-.964-.964H6.27a.964.964 0 00-.964.964L5.3 24.348H1.932A1.932 1.932 0 010 22.416V9.406c0-.934.649-1.88 1.52-2.215l11.634-4.475a.964.964 0 01.692 0L25.48 7.191c.87.335 1.52 1.282 1.52 2.214v13.011a1.933 1.933 0 01-1.932 1.932h-3.375z" fill="#5B00CE"/></svg>