<svg width="62" height="55" fill="none" xmlns="http://www.w3.org/2000/svg"><path d="M53.575 13.09a2.12 2.12 0 00-.336-1.107 2.163 2.163 0 00-.87-.774L31.983 1.113a2.213 2.213 0 00-1.964 0L9.63 11.21a2.16 2.16 0 00-.87.773 2.117 2.117 0 00-.335 1.107c-.094 5.785.864 29.11 21.838 36.134a2.354 2.354 0 001.472 0C52.711 42.2 53.669 18.875 53.575 13.09zM40.439 23.172l-3.277 3.148a1.287 1.287 0 00-.376 1.143l.774 4.444c.041.238.014.482-.078.705a1.294 1.294 0 01-.444.558 1.322 1.322 0 01-1.379.098L31.61 31.17a1.321 1.321 0 00-1.218 0l-4.05 2.098a1.326 1.326 0 01-1.378-.098 1.294 1.294 0 01-.444-.558 1.274 1.274 0 01-.078-.705l.774-4.444a1.275 1.275 0 00-.376-1.143l-3.277-3.148a1.274 1.274 0 01.071-1.91 1.32 1.32 0 01.655-.291l4.528-.65c.21-.03.41-.11.582-.233.172-.123.311-.285.405-.473l2.026-4.043c.108-.216.275-.398.483-.525a1.324 1.324 0 011.866.525l2.026 4.043a1.3 1.3 0 00.404.473c.172.123.372.203.582.234l4.528.649c.242.036.468.137.653.293a1.274 1.274 0 01.067 1.909zm12.338 12.123c-2.116 4.308-5.014 8.256-8.834 11.475l7.442 7.336 2.778-7.331 7.462-2.758-8.848-8.722zm-43.554 0L.375 44.017l7.46 2.76 2.778 7.331 7.441-7.335c-3.817-3.22-6.715-7.168-8.83-11.478z" fill="#5B00CE"/></svg>