<svg width="397" height="375" fill="none" xmlns="http://www.w3.org/2000/svg"><path d="M198.5 0a124.07 124.07 0 00-87.725 36.333 124.039 124.039 0 00-36.338 87.715v71.451a113.647 113.647 0 00-37.466 23.321C2.729 252.809 0 325.749 0 347.333c0 21.585 2.73 94.525 36.97 128.514C67.243 505.866 132.748 521 198.5 521s131.258-14.886 161.529-44.905C394.271 441.858 397 368.918 397 347.333c0-21.584-2.729-94.524-36.971-128.513a113.63 113.63 0 00-37.467-23.321v-71.451a124.028 124.028 0 00-36.337-87.715A124.056 124.056 0 00198.5 0zm-74.438 124.048a74.424 74.424 0 0121.803-52.63 74.44 74.44 0 01127.073 52.63v56.565a416.92 416.92 0 00-148.876 0v-56.565zm99.25 223.285v24.81a24.81 24.81 0 01-24.812 24.809 24.811 24.811 0 01-24.812-24.809v-24.81a24.81 24.81 0 110-49.619h49.624a24.81 24.81 0 110 49.619z" fill="#000" fill-opacity=".15"/></svg>