<svg width="477" height="627" fill="none" xmlns="http://www.w3.org/2000/svg"><path d="M238.333.792A148.957 148.957 0 0089.375 149.75v85.8a136.435 136.435 0 00-44.985 28.004C3.277 304.369 0 391.956 0 417.875c0 25.919 3.277 113.506 44.39 154.321 36.345 36.048 114.995 54.221 193.943 54.221 78.948 0 157.598-17.875 193.944-53.923 41.113-41.113 44.39-128.7 44.39-154.619 0-25.919-3.277-113.506-44.39-154.321a136.435 136.435 0 00-44.985-28.004v-85.8a148.956 148.956 0 00-91.955-137.62A148.955 148.955 0 00238.333.792zM148.958 149.75a89.375 89.375 0 01178.75 0v67.925a500.504 500.504 0 00-178.75 0V149.75zm119.167 268.125v29.792a29.793 29.793 0 01-59.583 0v-29.792a29.79 29.79 0 110-59.583h59.583a29.792 29.792 0 110 59.583z" fill="#000" fill-opacity=".15"/></svg>