<svg width="27" height="41" fill="none" xmlns="http://www.w3.org/2000/svg"><path d="M18.812 14.014a14.8 14.8 0 013.543 2.124v-6.14c0-5.107-4.154-9.262-9.26-9.262h-.143c-5.102 0-9.257 4.155-9.257 9.261v6.14a14.802 14.802 0 014.596-2.523V9.997a4.668 4.668 0 014.665-4.665h.143a4.668 4.668 0 014.665 4.665v3.622c.35.115.703.248 1.048.395z" fill="#5B00CE"/><path d="M0 27.71c0 7.194 5.832 13.026 13.025 13.026 7.193 0 13.026-5.828 13.026-13.025 0-3.535-1.411-6.743-3.695-9.091a13.112 13.112 0 00-4.597-3.052 12.956 12.956 0 00-4.734-.887 12.987 12.987 0 00-9.33 3.939A12.983 12.983 0 000 27.71zm9.67-2.628a3.366 3.366 0 013.273-3.268 3.357 3.357 0 013.387 3.93 3.359 3.359 0 01-1.521 2.265.913.913 0 00-.41.966l.998 4.729a.461.461 0 01-.45.556h-3.843a.46.46 0 01-.45-.556l.997-4.73a.924.924 0 00-.409-.97 3.349 3.349 0 01-1.521-2.265 3.436 3.436 0 01-.05-.657z" fill="#5B00CE"/></svg>