<svg width="25" height="36" fill="none" xmlns="http://www.w3.org/2000/svg"><path fill-rule="evenodd" clip-rule="evenodd" d="M2.396 8.442a8.02 8.02 0 018.02-8.02h4.167a8.02 8.02 0 018.021 8.02v5.938H2.396V8.442zm8.02-4.479a4.48 4.48 0 00-4.479 4.48v2.395h13.125V8.442a4.48 4.48 0 00-4.479-4.479h-4.166z" fill="#5B00CE"/><path fill-rule="evenodd" clip-rule="evenodd" d="M8.333 10.53A8.333 8.333 0 000 18.863v8.333a8.333 8.333 0 008.333 8.334h8.334A8.333 8.333 0 0025 27.196v-8.333a8.333 8.333 0 00-8.333-8.333H8.333zM12.5 27.196a4.167 4.167 0 100-8.333 4.167 4.167 0 000 8.333z" fill="#5B00CE"/></svg>