<svg viewBox="0 0 40 40" fill="none" xmlns="http://www.w3.org/2000/svg"><path d="M34.217 16.786c.048-5.64-4.755-10.81-10.707-11.524a8.718 8.718 0 01-.384-.058 5.566 5.566 0 00-.907-.1c-1.22 0-1.546.857-1.632 1.368-.083.497-.004.915.236 1.241.404.55 1.115.647 1.686.725.168.023.325.045.458.074 5.347 1.195 7.148 3.074 8.028 8.376.021.13.031.29.041.459.039.633.119 1.952 1.536 1.952.118 0 .245-.01.377-.03 1.32-.2 1.28-1.406 1.26-1.985-.006-.163-.012-.318.002-.42a.563.563 0 00.006-.078z" fill="#5B00CE"/><path d="M21.873 3.191c.158.011.308.022.433.042 8.781 1.35 12.82 5.51 13.939 14.36.019.15.022.334.025.529.011.691.034 2.13 1.579 2.16h.048c.484 0 .87-.146 1.145-.435.481-.503.448-1.25.42-1.85-.006-.148-.012-.287-.01-.408C39.561 8.538 31.727.33 22.684.025a.627.627 0 00-.11.006.757.757 0 01-.107.006c-.09 0-.2-.008-.318-.016A6.05 6.05 0 0021.683 0c-1.44 0-1.714 1.024-1.75 1.634-.08 1.41 1.284 1.51 1.94 1.557zm13.948 25.84a27.726 27.726 0 01-.56-.435c-.959-.772-1.979-1.483-2.966-2.17l-.613-.43c-1.263-.887-2.4-1.318-3.473-1.318-1.445 0-2.706.799-3.746 2.373-.46.699-1.02 1.038-1.71 1.038-.407 0-.87-.116-1.375-.345-4.079-1.85-6.991-4.686-8.656-8.429-.806-1.81-.545-2.992.872-3.954.805-.546 2.303-1.563 2.196-3.51-.12-2.21-4.998-8.863-7.053-9.618-.87-.32-1.784-.323-2.722-.008-2.363.795-4.059 2.19-4.904 4.034-.817 1.782-.78 3.875.107 6.052C3.78 18.605 7.386 24.092 11.93 28.62c4.45 4.432 9.918 8.063 16.254 10.791.57.246 1.17.38 1.607.478.15.033.278.062.372.088a.626.626 0 00.158.022h.05c2.98 0 6.558-2.723 7.657-5.827.962-2.719-.795-4.062-2.208-5.142zm-12.63-18.65c-.51.012-1.572.039-1.944 1.12-.175.506-.154.944.062 1.304.316.529.922.69 1.473.78 1.999.32 3.026 1.425 3.23 3.477.096.957.74 1.626 1.568 1.626.061 0 .124-.004.186-.012.995-.118 1.477-.849 1.434-2.172.016-1.381-.707-2.95-1.936-4.198-1.234-1.253-2.72-1.958-4.073-1.925z" fill="#5B00CE"/></svg>