<svg viewBox="0 0 27 27" fill="none" xmlns="http://www.w3.org/2000/svg"><path d="M24.469 18.563v-13.5a2.53 2.53 0 00-2.532-2.532H5.063a2.528 2.528 0 00-2.53 2.531v13.5a2.528 2.528 0 002.53 2.532h16.875a2.53 2.53 0 002.532-2.532zM13.5 16.875a5.063 5.063 0 115.063-5.063 5.078 5.078 0 01-5.063 5.063zm5.063 7.594h1.687a.836.836 0 00.844-.844v-.844h-3.375v.844a.834.834 0 00.843.844zm-11.813 0h1.688a.836.836 0 00.843-.844v-.844H5.906v.844a.835.835 0 00.844.844z" fill="#5B00CE"/><path d="M15.188 10.969h1.569a3.375 3.375 0 100 1.687h-1.57a.844.844 0 010-1.687z" fill="#5B00CE"/></svg>