<svg viewBox="0 0 30 25" fill="none" xmlns="http://www.w3.org/2000/svg"><path fill-rule="evenodd" clip-rule="evenodd" d="M1.188 10.938a1.062 1.062 0 100 2.124h3.187a1.062 1.062 0 100-2.124H1.187zm0-4.25a1.062 1.062 0 100 2.125H6.5a1.062 1.062 0 000-2.126H1.187zm0-4.25a1.062 1.062 0 100 2.124h8.5a1.063 1.063 0 000-2.125h-8.5zM16.062.312a1.063 1.063 0 000 2.126h1.063v1.115c-5.358.537-9.563 5.076-9.563 10.572 0 5.855 4.77 10.625 10.625 10.625 5.856 0 10.625-4.77 10.625-10.625a10.572 10.572 0 00-2.403-6.72l.795-.792.751.751a1.062 1.062 0 001.502-1.502l-1.45-1.45a1.136 1.136 0 00-.024-.028l-1.532-1.53a1.063 1.063 0 00-1.503 1.503l.751.752-.792.794a10.578 10.578 0 00-5.657-2.35V2.438h1.063a1.063 1.063 0 000-2.126h-4.25zm2.125 7.438a1.063 1.063 0 011.063 1.063v5.312c0 .282-.112.552-.311.751l-3.188 3.188a1.063 1.063 0 01-1.502-1.503l2.876-2.876V8.812a1.062 1.062 0 011.063-1.062z" fill="#EDFF24"/></svg>