<svg width="205" height="33" fill="none" xmlns="http://www.w3.org/2000/svg"><path d="M16.5 0l4.267 10.627 11.425.774-8.787 7.343 2.793 11.105L16.5 23.76l-9.698 6.089 2.793-11.105L.808 11.4l11.425-.774L16.5 0zm43 0l4.267 10.627 11.425.774-8.787 7.343 2.793 11.105L59.5 23.76l-9.699 6.089 2.794-11.105-8.787-7.343 11.425-.774L59.5 0zm43 0l4.267 10.627 11.425.774-8.787 7.343 2.793 11.105-9.698-6.089-9.698 6.089 2.793-11.105-8.787-7.343 11.425-.774L102.5 0zm43 0l4.267 10.627 11.425.774-8.787 7.343 2.793 11.105-9.698-6.089-9.698 6.089 2.793-11.105-8.787-7.343 11.425-.774L145.5 0zm43 0l4.267 10.627 11.425.774-8.787 7.343 2.793 11.105-9.698-6.089-9.698 6.089 2.793-11.105-8.787-7.343 11.425-.774L188.5 0z" fill="#E5E86B"/></svg>