<svg width="113" height="18" fill="none" xmlns="http://www.w3.org/2000/svg"><path d="M9.875 0l2.328 5.796 6.232.423-4.794 4.005 1.524 6.057-5.29-3.321-5.29 3.321 1.524-6.057-4.794-4.005 6.232-.423L9.875 0zM33.29 0l2.327 5.796 6.232.423-4.793 4.005 1.524 6.057-5.29-3.321L28 16.281l1.523-6.057-4.793-4.005 6.232-.423L33.29 0zm23.414 0l2.328 5.796 6.232.423-4.794 4.005 1.524 6.057-5.29-3.321-5.29 3.321 1.524-6.057-4.793-4.005 6.232-.423L56.704 0zm23.415 0l2.328 5.796 6.231.423-4.793 4.005 1.524 6.057-5.29-3.321-5.29 3.321 1.524-6.057-4.794-4.005 6.232-.423L80.12 0zm23.415 0l2.327 5.796 6.232.423-4.793 4.005 1.524 6.057-5.29-3.321-5.29 3.321 1.523-6.057-4.793-4.005 6.232-.423L103.534 0z" fill="#E5E86B"/></svg>