<svg width="30" height="30" fill="none" xmlns="http://www.w3.org/2000/svg"><g clip-path="url(#clip0_606_911)"><path d="M6.686 7.849a.938.938 0 00.85.54h4.558V10a.937.937 0 101.875 0V8.39h.432a.938.938 0 000-1.875h-.432V.889a.937.937 0 00-1.656-.602L6.816 6.85a.937.937 0 00-.13.999zm5.408-4.38v3.046H9.543l2.55-3.046zm4.744 19.914l4.912-7.668h-3.617a.938.938 0 010-1.875h5.33a.938.938 0 01.79 1.443l-5.836 9.111a.939.939 0 01-1.707-.304.937.937 0 01.128-.707zm4.908-17.227a.937.937 0 010 1.326l-13.82 13.82A.937.937 0 016.6 19.976l13.82-13.82a.937.937 0 011.326 0zM5.303 4.192c.237-.87.087-1.524-.447-1.947-.598-.472-1.593-.556-2.266-.19-.51.279-.737.76-.673 1.43a.937.937 0 11-1.866.18C-.086 2.237.512 1.051 1.693.408 3.02-.313 4.838-.16 6.02.775c1.129.893 1.527 2.319 1.092 3.91-.293 1.075-1.298 1.859-2.46 2.766-.628.49-1.306 1.019-1.874 1.612h3.884a.938.938 0 110 1.875H.957A.937.937 0 01.113 9.59c.764-1.573 2.156-2.66 3.384-3.617.824-.644 1.676-1.309 1.806-1.782zM30 15.049A15 15 0 014.393 25.654 14.901 14.901 0 010 15.048a.937.937 0 111.875 0c0 7.238 5.888 13.126 13.125 13.126s13.125-5.888 13.125-13.125c0-6.571-4.905-12.166-11.41-13.014a.938.938 0 11.243-1.86A15.002 15.002 0 0130 15.05z" fill="#404346"/></g><defs><clipPath id="clip0_606_911"><path fill="#fff" d="M0 0h30v30H0z"/></clipPath></defs></svg>