<svg width="90" height="104" fill="none" xmlns="http://www.w3.org/2000/svg"><path fill-rule="evenodd" clip-rule="evenodd" d="M73.568 31.986c-10.972-4.527-22.99-7.019-35.586-7.019-12.592 0-24.61 2.492-35.587 7.019-8.484 27.456 7.579 64.598 35.587 71.723 28.011-7.125 44.074-44.267 35.586-71.723zM45.89 65.613a12.002 12.002 0 003.997-8.965c0-6.62-5.327-11.988-11.905-11.988-6.575 0-11.906 5.369-11.906 11.988a11.99 11.99 0 004.002 8.965l-1.991 18.399a37.313 37.313 0 009.895 1.324c3.427 0 6.743-.458 9.895-1.324L45.89 65.614z" fill="#5B00CE"/><path fill-rule="evenodd" clip-rule="evenodd" d="M37.982 24.967c-12.592 0-24.61 2.492-35.587 7.019-5.08 16.441-1.358 36.358 8.464 51.223-1.296-24.395 20.336-36.962 21.96-37.362a11.77 11.77 0 015.163-1.187c1.851 0 3.606.428 5.167 1.187 1.62.4 23.25 12.967 21.96 37.361 9.818-14.864 2.596-30.266-2.484-46.708-10.973-4.526-12.047-11.533-24.643-11.533zm-.001 60.368c-3.422 0-6.738-.457-9.895-1.323 0 0-1.435 12.868 1.533 16.529a40.247 40.247 0 008.362 3.168 40.111 40.111 0 008.367-3.168c2.968-3.66 1.528-16.53 1.528-16.53a37.276 37.276 0 01-9.895 1.325z" fill="#5B00CE"/><path fill-rule="evenodd" clip-rule="evenodd" d="M.973 57.806c8.257-30.162 65.765-30.162 74.016 0 1.45-8.77 1.083-17.716-1.42-25.82-10.974-4.527-22.991-7.019-35.588-7.019-12.592 0-24.609 2.492-35.587 7.019-2.503 8.104-2.87 17.05-1.42 25.82z" fill="#5B00CE"/><path fill-rule="evenodd" clip-rule="evenodd" d="M43.149 44.456a11.793 11.793 0 00-5.168-1.188c-1.851 0-3.6.428-5.162 1.188-1.59.39-22.429 12.489-22.014 35.963.406-22.564 20.453-34.187 22.014-34.572a11.77 11.77 0 015.162-1.187c1.852 0 3.606.428 5.168 1.187 1.557.385 21.602 12.008 22.008 34.572.421-23.474-20.417-35.574-22.008-35.963z" fill="#5B00CE"/><path d="M88.624 22.872l-3.406-3.537c-.808-.839-1.47-2.498-1.47-3.687v-5c0-2.38-1.872-4.323-4.162-4.324H74.77c-1.145 0-2.744-.69-3.552-1.528L67.812 1.26a4.066 4.066 0 00-5.885 0L58.522 4.8c-.81.839-2.41 1.526-3.552 1.526h-4.816c-2.287 0-4.161 1.943-4.161 4.322v5.001c0 1.185-.662 2.849-1.47 3.688l-3.406 3.536c-1.62 1.68-1.62 4.43 0 6.113l3.405 3.536c.81.84 1.471 2.503 1.471 3.688v5c0 2.377 1.874 4.323 4.161 4.323h4.816c1.144 0 2.744.688 3.552 1.526l3.405 3.538a4.068 4.068 0 005.885 0l3.405-3.538c.809-.839 2.407-1.526 3.552-1.526h4.817c2.29 0 4.162-1.946 4.162-4.322V36.21c0-1.19.663-2.849 1.47-3.688l3.406-3.536c1.617-1.682 1.617-4.433 0-6.113zM61.566 35.65l-9.181-9.536 2.942-3.055 6.24 6.48L74.41 16.204l2.942 3.055-15.787 16.39z" fill="#fff"/><path d="M84.97 19.483l-2.882-3.012c-.684-.715-1.244-2.128-1.244-3.141V9.07c0-2.027-1.584-3.682-3.522-3.683h-4.076c-.968 0-2.321-.587-3.005-1.301l-2.882-3.013a3.424 3.424 0 00-4.98 0L59.5 4.088c-.685.715-2.04 1.3-3.006 1.3H52.42c-1.936 0-3.522 1.655-3.522 3.682v4.26c0 1.01-.56 2.427-1.244 3.141l-2.882 3.012c-1.37 1.431-1.37 3.775 0 5.208l2.882 3.012c.684.715 1.244 2.132 1.244 3.142v4.26c0 2.024 1.586 3.681 3.522 3.681h4.074c.969 0 2.322.586 3.006 1.3l2.88 3.014a3.426 3.426 0 004.98 0l2.882-3.013c.684-.715 2.037-1.3 3.005-1.3h4.076c1.938 0 3.522-1.658 3.522-3.682v-4.26c0-1.014.56-2.427 1.244-3.142l2.882-3.012c1.368-1.433 1.368-3.777 0-5.208zM62.075 30.37l-7.77-8.123 2.49-2.602 5.28 5.52 10.868-11.36 2.49 2.603L62.075 30.37z" fill="#fff"/><circle cx="65.625" cy="26.5" r="11.5" fill="#fff"/><path d="M86.89 22.477l-2.881-2.881c-.684-.684-1.245-2.036-1.245-3.005v-4.075a3.532 3.532 0 00-3.521-3.523h-4.076c-.969 0-2.322-.561-3.006-1.245l-2.88-2.88a3.532 3.532 0 00-4.98 0L61.419 7.75c-.684.684-2.039 1.244-3.005 1.244H54.34a3.532 3.532 0 00-3.52 3.522v4.075c0 .965-.561 2.321-1.245 3.005l-2.882 2.88a3.533 3.533 0 000 4.983l2.882 2.88c.684.685 1.244 2.04 1.244 3.005v4.075a3.533 3.533 0 003.521 3.522h4.075c.968 0 2.322.56 3.005 1.244l2.882 2.882a3.534 3.534 0 004.98 0l2.88-2.882c.685-.684 2.037-1.244 3.006-1.244h4.076a3.532 3.532 0 003.521-3.522v-4.075c0-.97.561-2.32 1.245-3.004l2.881-2.881a3.537 3.537 0 000-4.982zM63.995 32.889l-7.768-7.77 2.49-2.489 5.279 5.28 10.868-10.866 2.49 2.49-13.359 13.355z" fill="#08A735"/></svg>