<svg width="63" height="71" fill="none" xmlns="http://www.w3.org/2000/svg"><path fill-rule="evenodd" clip-rule="evenodd" d="M50.926 21.898c-7.511-3.1-15.738-4.805-24.362-4.805A63.764 63.764 0 002.2 21.898C-3.607 40.694 7.39 66.122 26.564 71c19.177-4.878 30.174-30.306 24.362-49.102zM31.978 44.919a8.217 8.217 0 002.737-6.137c0-4.532-3.647-8.207-8.151-8.207-4.5 0-8.15 3.675-8.15 8.207a8.208 8.208 0 002.74 6.138L19.79 57.514c2.16.593 4.43.906 6.774.906 2.346 0 4.616-.313 6.774-.906l-1.36-12.596z" fill="#5B00CE"/><path fill-rule="evenodd" clip-rule="evenodd" d="M26.564 17.093A63.764 63.764 0 002.2 21.898c-3.478 11.256-.93 24.89 5.795 35.067-.887-16.7 13.922-25.304 15.034-25.578a8.058 8.058 0 013.534-.813c1.267 0 2.469.293 3.538.813 1.108.274 15.917 8.877 15.034 25.578 6.72-10.176 9.269-23.812 5.79-35.068-7.511-3.098-15.738-4.804-24.362-4.804zm0 41.327c-2.343 0-4.613-.312-6.774-.905 0 0-.983 8.81 1.049 11.316A27.564 27.564 0 0026.564 71a27.468 27.468 0 005.728-2.17c2.032-2.505 1.046-11.315 1.046-11.315a25.516 25.516 0 01-6.774.906z" fill="#5B00CE"/><path fill-rule="evenodd" clip-rule="evenodd" d="M1.228 39.575c5.652-20.65 45.023-20.65 50.672 0 .992-6.005.74-12.13-.973-17.677-7.512-3.1-15.74-4.805-24.363-4.805A63.764 63.764 0 002.2 21.898C.487 27.446.235 33.57 1.228 39.575z" fill="#5B00CE"/><path fill-rule="evenodd" clip-rule="evenodd" d="M30.101 30.434a8.073 8.073 0 00-3.537-.813 8.054 8.054 0 00-3.535.813c-1.088.267-15.355 8.55-15.07 24.621.278-15.448 14.001-23.405 15.07-23.668a8.058 8.058 0 013.535-.813c1.267 0 2.468.293 3.537.813 1.066.263 14.79 8.22 15.067 23.668.288-16.07-13.978-24.354-15.067-24.62z" fill="#5B00CE"/><path d="M61.234 15.658l-2.332-2.42c-.553-.575-1.006-1.711-1.006-2.525V7.289c0-1.628-1.282-2.959-2.85-2.96H51.75c-.784 0-1.879-.471-2.432-1.046L46.986.863a2.783 2.783 0 00-4.029 0l-2.331 2.422c-.554.575-1.65 1.045-2.432 1.045h-3.296c-1.567 0-2.85 1.33-2.85 2.96v3.423c0 .81-.453 1.95-1.006 2.524l-2.332 2.421c-1.108 1.15-1.108 3.034 0 4.185l2.332 2.421c.554.575 1.007 1.713 1.007 2.525v3.423c0 1.627 1.282 2.96 2.849 2.96h3.296c.784 0 1.879.47 2.432 1.044l2.331 2.422a2.785 2.785 0 004.029 0l2.331-2.422c.554-.574 1.648-1.045 2.432-1.045h3.298c1.568 0 2.849-1.332 2.849-2.959V24.79c0-.815.453-1.95 1.007-2.525l2.331-2.42c1.107-1.152 1.107-3.036 0-4.186zM42.71 24.407l-6.285-6.529 2.014-2.09 4.272 4.435 8.793-9.13 2.014 2.092L42.71 24.407z" fill="#fff"/><path d="M60.047 15.387l-1.973-1.972c-.468-.468-.852-1.394-.852-2.057v-2.79a2.418 2.418 0 00-2.41-2.411H52.02c-.663 0-1.59-.385-2.057-.853L47.99 3.332a2.418 2.418 0 00-3.409 0L42.61 5.306c-.47.468-1.396.851-2.058.851h-2.79a2.418 2.418 0 00-2.41 2.411v2.79c0 .66-.384 1.59-.852 2.057l-1.973 1.973a2.418 2.418 0 000 3.41L34.5 20.77c.469.469.852 1.396.852 2.058v2.79a2.419 2.419 0 002.41 2.41h2.79c.663 0 1.59.384 2.058.852l1.972 1.973a2.42 2.42 0 003.41 0l1.972-1.973c.468-.468 1.394-.852 2.057-.852h2.79a2.418 2.418 0 002.411-2.41v-2.79c0-.664.384-1.59.852-2.058l1.973-1.972a2.421 2.421 0 000-3.41zm-15.674 7.13l-5.318-5.32 1.704-1.704 3.614 3.614 7.44-7.438 1.705 1.704-9.145 9.143z" fill="#5B00CE"/></svg>