<svg width="1668" height="819" fill="none" xmlns="http://www.w3.org/2000/svg"><path d="M1137.83 89.92c15.97-2.07 34.43-9.872 47.26-19.957 5.41-4.248 3.93-13.195 3.79-19.325-.22-9.173-11.18-20.543-17.54-25.943-14.97-12.69-35.24-22.25-55.04-23.528-22.35-1.442-43.5 6.23-46.32 30.88-4.18 36.537 18.93 60.836 54.62 67.325 30.21 5.493 52.35-.362 76.88-18.275 11.65-8.504 19.75-21.646 29.93-31.825 15.58-15.58 35.02-24.343 55.78-31.09 29.03-9.435 61.1-9.557 91.37-9.557 25.47 0 47.47 4.995 71.11 14.284 49.51 19.45 80.95 62.03 84.76 114.485 1.97 27.09-7.23 53.116-32.56 65.96-35.56 18.029-74.72 23.331-112.17 35.816-13.04 4.346-27.81 8.143-36.34 19.851-9.11 12.496-7.93 32.741-7.46 47.475.9 28.475 20.21 54.451 36.02 76.883 18.32 25.971 45.83 41.425 73.74 55.457 55.49 27.907 121.8 50.315 166.37 95.369 14.9 15.064 25.46 37.387 34.34 56.298 10.92 23.236 12.8 50.542 8.72 75.623-3.29 20.202-16.83 31.533-35.08 40.122-14.04 6.607-29.58 10.092-44.43 14.284-19.72 5.566-39.24 11.494-59.76 13.234-25.9 2.197-57.96 4.806-83.71-.735-27.82-5.986-53.49-20.179-78.46-33.085-56.44-29.173-113.29-57.932-165.74-93.899-47.56-32.61-111.52-66.542-171.1-50.205-58.952 16.165-87.903 70.571-121.941 116.376-14.853 19.987-32.683 36.83-48.735 55.772-14.573 17.196-27.852 31.807-47.475 43.168-23.64 13.686-48.111 24.421-72.367 37.076-21.84 11.395-53.907 9.593-77.934 7.457-15.766-1.401-30.457-9.38-45.479-13.864-16.59-4.952-33.656-9.535-49.995-15.124-23.05-7.886-52.556-13.254-71.527-29.514-17.478-14.982-28.087-36.221-45.689-51.151-23.109-19.602-55.671-33.155-83.08-45.374-24.326-10.844-57.527-18.486-84.131-18.486-57.847 0-99.473 48.584-149.146 71.422-35.14 16.157-67.018 21.279-89.277-16.595C8.324 643.051-4.048 581.607 2.853 519.501c3.666-32.997 15.957-69.598 32.14-98.52 13.65-24.398 34.092-43.147 55.142-61.024 22.449-19.067 46.444-28.238 73.207-39.597 29.352-12.458 58.09-24.372 88.332-34.661 28.04-9.539 53.853-22.452 80.98-34.03 24.637-10.516 50.682-20.282 74.152-33.19 30.124-16.568 39.067-57.582 32.14-89.067-4.269-19.407-19.151-32.666-25.208-50.836" stroke="#E5E3F9" stroke-width="1.5" stroke-linecap="round"/></svg>