<svg width="47" height="54" viewBox="0 0 47 54" fill="none" xmlns="http://www.w3.org/2000/svg">
<path fill-rule="evenodd" clip-rule="evenodd" d="M38.5293 16.6545C32.8161 14.2974 26.5589 13 19.9999 13C13.4434 13 7.18621 14.2977 1.47035 16.6545C-2.94678 30.9505 5.41678 50.2898 19.9999 54C34.5852 50.2898 42.9491 30.9505 38.5293 16.6545ZM24.1175 34.164C25.3936 33.021 26.1991 31.3535 26.1991 29.4959C26.1991 26.0492 23.4254 23.2538 19.9999 23.2538C16.5769 23.2538 13.8007 26.0492 13.8007 29.4959C13.8007 31.3535 14.6062 33.021 15.8848 34.164L14.8477 43.7437C16.4912 44.1949 18.2179 44.433 19.9999 44.433C21.7844 44.433 23.5111 44.1947 25.1521 43.7437L24.1175 34.164Z" fill="#F00000"/>
<path fill-rule="evenodd" clip-rule="evenodd" d="M19.9999 13C13.4434 13 7.18623 14.2977 1.47037 16.6545C-1.17491 25.2154 0.763233 35.5856 5.87755 43.3255C5.20294 30.6234 16.4662 24.08 17.3119 23.872C18.1249 23.4768 19.036 23.2536 19.9999 23.2536C20.9639 23.2536 21.8776 23.4765 22.6906 23.872C23.5337 24.0798 34.797 30.6234 34.125 43.3252C39.2369 35.5856 41.1748 25.2152 38.5295 16.6542C32.8161 14.2974 26.5589 13 19.9999 13Z" fill="#F00000"/>
<path fill-rule="evenodd" clip-rule="evenodd" d="M19.9999 44.4329C18.2178 44.4329 16.4914 44.1946 14.8477 43.7437C14.8477 43.7437 14.1003 50.4442 15.6456 52.35C17.0249 53.0545 18.4798 53.612 19.9999 53.9999C21.5227 53.6123 22.9775 53.0547 24.3566 52.35C25.9019 50.4442 25.1518 43.7437 25.1518 43.7437C23.5111 44.1946 21.7844 44.4329 19.9999 44.4329Z" fill="#F00000"/>
<path fill-rule="evenodd" clip-rule="evenodd" d="M0.730308 30.0989C5.02922 14.3937 34.9728 14.3937 39.2693 30.0989C40.0242 25.5322 39.833 20.8741 38.5294 16.6545C32.8159 14.2974 26.5587 13 19.9998 13C13.4433 13 7.18608 14.2977 1.47022 16.6545C0.166635 20.8741 -0.0246542 25.5322 0.730308 30.0989Z" fill="#F00000"/>
<path fill-rule="evenodd" clip-rule="evenodd" d="M22.6904 23.1473C21.8774 22.7521 20.9637 22.5289 19.9997 22.5289C19.0357 22.5289 18.1247 22.7519 17.3117 23.1473C16.4837 23.3502 5.63333 29.6504 5.84963 41.8731C6.06106 30.1241 16.4987 24.0723 17.3117 23.8721C18.1247 23.4768 19.0357 23.2537 19.9997 23.2537C20.9637 23.2537 21.8774 23.4766 22.6904 23.8721C23.5009 24.0723 33.9383 30.1241 34.1498 41.8731C34.369 29.6504 23.5186 23.3502 22.6904 23.1473Z" fill="#F00000"/>
<path d="M46.3686 11.9088L44.5954 10.0677C44.1745 9.63068 43.8296 8.76702 43.8296 8.14764V5.54385C43.8296 4.30524 42.8552 3.29338 41.6628 3.29273H39.1543C38.5586 3.29273 37.7259 2.93393 37.305 2.49722L35.5321 0.656106C34.6896 -0.218702 33.3103 -0.218702 32.4679 0.656106L30.6949 2.49854C30.2737 2.93558 29.4401 3.29338 28.8456 3.29338H26.3382C25.147 3.29338 24.1713 4.30524 24.1713 5.54385V8.14771C24.1713 8.76464 23.8265 9.63101 23.4056 10.0678L21.6323 11.9089C20.7892 12.7837 20.7892 14.2161 21.6323 15.0923L23.4056 16.9334C23.8268 17.3704 24.1713 18.2364 24.1713 18.8534V21.4573C24.1713 22.6946 25.147 23.7078 26.3382 23.7078H28.8456C29.4414 23.7078 30.274 24.0658 30.695 24.5026L32.4679 26.3444C33.3104 27.2185 34.6897 27.2185 35.5321 26.3444L37.3051 24.5026C37.7263 24.0656 38.5587 23.7078 39.1544 23.7078H41.6628C42.8553 23.7078 43.8297 22.6946 43.8297 21.4573V18.8534C43.8297 18.2338 44.1748 17.3701 44.5954 16.9334L46.3687 15.0923C47.2104 14.2161 47.2104 12.7836 46.3686 11.9088ZM32.28 18.5627L27.4995 13.5977L29.0316 12.0071L32.2804 15.3808L38.9682 8.43762L40.4999 10.0283L32.28 18.5627Z" fill="white"/>
<path d="M44.4658 10.1446L42.9653 8.57621C42.6092 8.20392 42.3174 7.4682 42.3174 6.94058V4.72254C42.3174 3.66742 41.4929 2.80548 40.4839 2.80491H38.3614C37.8573 2.80491 37.1527 2.49927 36.7966 2.12726L35.2964 0.558905C34.5835 -0.186302 33.4164 -0.186302 32.7036 0.558905L31.2034 2.12838C30.8469 2.50068 30.1416 2.80548 29.6386 2.80548H27.5169C26.509 2.80548 25.6834 3.66742 25.6834 4.72254V6.94064C25.6834 7.46618 25.3917 8.2042 25.0355 8.57627L23.535 10.1446C22.8217 10.8898 22.8217 12.11 23.535 12.8564L25.0355 14.4247C25.3919 14.797 25.6834 15.5347 25.6834 16.0603V18.2784C25.6834 19.3324 26.509 20.1955 27.5169 20.1955H29.6386C30.1427 20.1955 30.8473 20.5005 31.2034 20.8726L32.7036 22.4415C33.4165 23.1862 34.5836 23.1862 35.2964 22.4415L36.7966 20.8726C37.153 20.5003 37.8573 20.1955 38.3614 20.1955H40.4839C41.4929 20.1955 42.3174 19.3324 42.3174 18.2784V16.0603C42.3174 15.5325 42.6095 14.7968 42.9654 14.4247L44.4658 12.8564C45.1781 12.11 45.1781 10.8898 44.4658 10.1446ZM32.5446 15.8127L28.4995 11.5833L29.7959 10.2282L32.545 13.1021L38.2038 7.1876L39.4999 8.54263L32.5446 15.8127Z" fill="white"/>
<path d="M45.4659 11.7033L43.9654 10.2031C43.6093 9.84699 43.3175 9.14325 43.3175 8.63856V6.51692C43.3175 5.50766 42.493 4.68318 41.484 4.68264H39.3615C38.8574 4.68264 38.1529 4.39028 37.7967 4.03444L36.2965 2.53425C35.5837 1.82143 34.4166 1.82143 33.7038 2.53425L32.2036 4.03551C31.8471 4.39163 31.1418 4.68318 30.6388 4.68318H28.5171C27.5092 4.68318 26.6837 5.50766 26.6837 6.51692V8.63862C26.6837 9.14131 26.3919 9.84726 26.0357 10.2032L24.5353 11.7033C23.8219 12.4162 23.8219 13.5833 24.5353 14.2972L26.0357 15.7974C26.3921 16.1535 26.6837 16.8592 26.6837 17.362V19.4837C26.6837 20.4918 27.5092 21.3174 28.5171 21.3174H30.6388C31.1429 21.3174 31.8475 21.6092 32.2036 21.9651L33.7038 23.4658C34.4166 24.1781 35.5838 24.1781 36.2966 23.4658L37.7968 21.9651C38.1532 21.6089 38.8575 21.3174 39.3616 21.3174H41.4841C42.4931 21.3174 43.3176 20.4918 43.3176 19.4837V17.362C43.3176 16.8571 43.6096 16.1533 43.9655 15.7974L45.4659 14.2972C46.1782 13.5833 46.1782 12.4161 45.4659 11.7033ZM33.5448 17.1251L29.4997 13.0795L30.7961 11.7833L33.5452 14.5323L39.204 8.87485L40.5001 10.171L33.5448 17.1251Z" fill="#EF0000"/>
</svg>
