<svg width="42" height="42" viewBox="0 0 42 42" fill="none" xmlns="http://www.w3.org/2000/svg">
<circle cx="21" cy="21" r="21" fill="#F6EFFF"/>
<path fill-rule="evenodd" clip-rule="evenodd" d="M31.546 14.111C31.8272 14.3923 31.9852 14.7738 31.9852 15.1715C31.9852 15.5692 31.8272 15.9507 31.546 16.232L20.303 27.475C20.1544 27.6236 19.978 27.7415 19.7839 27.8219C19.5898 27.9024 19.3817 27.9438 19.1715 27.9438C18.9614 27.9438 18.7533 27.9024 18.5591 27.8219C18.365 27.7415 18.1886 27.6236 18.04 27.475L12.454 21.89C12.3108 21.7516 12.1965 21.5861 12.1179 21.4031C12.0393 21.2201 11.9979 21.0233 11.9962 20.8241C11.9944 20.6249 12.0324 20.4274 12.1078 20.2431C12.1832 20.0587 12.2946 19.8912 12.4354 19.7504C12.5763 19.6096 12.7438 19.4982 12.9281 19.4228C13.1124 19.3473 13.31 19.3094 13.5091 19.3111C13.7083 19.3129 13.9051 19.3542 14.0881 19.4328C14.2711 19.5115 14.4367 19.6257 14.575 19.769L19.171 24.365L29.424 14.111C29.5633 13.9716 29.7287 13.861 29.9108 13.7856C30.0928 13.7101 30.288 13.6713 30.485 13.6713C30.6821 13.6713 30.8772 13.7101 31.0593 13.7856C31.2413 13.861 31.4067 13.9716 31.546 14.111Z" fill="#5B00CE"/>
</svg>
