<svg viewBox="0 0 54 55" fill="none" xmlns="http://www.w3.org/2000/svg">
<path d="M52.6 23.5333L48.8667 19.2667C48.0667 18.4667 47.5333 16.8667 47.5333 15.8V11.5333C47.5333 8.60001 45.1333 6.46668 42.4667 6.46668H37.9333C36.8667 6.46668 35.2667 5.93334 34.4667 5.13335L30.2 1.40001C28.3333 -0.199988 25.4 -0.199988 23.5333 1.40001L19.5333 5.13335C18.7333 5.93334 17.1333 6.46668 16.0667 6.46668H11.5333C8.60001 6.46668 6.46668 8.86668 6.46668 11.5333V16.0667C6.46668 17.1333 5.93334 18.7333 5.13334 19.5333L1.66667 23.8C0.0666748 25.6667 0.0666748 28.6 1.66667 30.4667L5.13334 34.7333C5.93334 35.5333 6.46668 37.1333 6.46668 38.2V42.7333C6.46668 45.6667 8.86667 47.8 11.5333 47.8H16.0667C17.1333 47.8 18.7333 48.3333 19.5333 49.1333L23.8 52.8667C25.6667 54.4667 28.6 54.4667 30.4667 52.8667L34.7333 49.1333C35.5333 48.3333 37.1333 47.8 38.2 47.8H42.7333C45.6667 47.8 47.8 45.4 47.8 42.7333V38.2C47.8 37.1333 48.3333 35.5333 49.1333 34.7333L52.8667 30.4667C54.2 28.6 54.2 25.4 52.6 23.5333ZM38.2 21.9333L25.4 34.7333C25.1333 35 24.6 35.2667 24.0667 35.2667C23.5333 35.2667 23 35 22.7333 34.7333L16.3333 28.3333C15.5333 27.5333 15.5333 26.2 16.3333 25.4C17.1333 24.6 18.4667 24.6 19.2667 25.4L24.3333 30.4667L35.2667 19C36.0667 18.2 37.4 18.2 38.2 19C39 19.8 39 21.1333 38.2 21.9333Z" fill="#5B00CE"/>
</svg>
