<svg viewBox="0 0 32 32" fill="none" xmlns="http://www.w3.org/2000/svg">
<path d="M7.6856 8.71697C7.76108 8.87862 7.88111 9.01538 8.03161 9.11119C8.1821 9.207 8.35681 9.25788 8.53521 9.25785H13.0938V10.8681C13.0938 11.1167 13.1926 11.3552 13.3684 11.531C13.5442 11.7068 13.7827 11.8056 14.0313 11.8056C14.2799 11.8056 14.5184 11.7068 14.6942 11.531C14.87 11.3552 14.9688 11.1167 14.9688 10.8681V9.25785H15.4006C15.6493 9.25785 15.8877 9.15908 16.0636 8.98326C16.2394 8.80745 16.3381 8.56899 16.3381 8.32035C16.3381 8.07171 16.2394 7.83326 16.0636 7.65744C15.8877 7.48162 15.6493 7.38285 15.4006 7.38285H14.9688V1.75697C14.9688 1.56454 14.9095 1.37679 14.7991 1.2192C14.6886 1.06161 14.5324 0.941817 14.3515 0.876088C14.1707 0.810359 13.974 0.801876 13.7881 0.851791C13.6023 0.901706 13.4363 1.0076 13.3127 1.1551L7.81627 7.71848C7.70175 7.85524 7.62863 8.02183 7.60549 8.19869C7.58235 8.37556 7.61014 8.55535 7.6856 8.71697ZM13.0938 4.33674V7.38297H10.5429L13.0938 4.33674ZM17.8381 24.2508L22.7496 16.5828H19.1333C18.8847 16.5828 18.6462 16.4841 18.4704 16.3082C18.2946 16.1324 18.1958 15.894 18.1958 15.6453C18.1958 15.3967 18.2946 15.1582 18.4704 14.9824C18.6462 14.8066 18.8847 14.7078 19.1333 14.7078H24.4634C24.6316 14.7078 24.7968 14.7531 24.9415 14.8389C25.0862 14.9247 25.2051 15.0478 25.2859 15.1954C25.3666 15.343 25.4061 15.5096 25.4003 15.6777C25.3945 15.8459 25.3436 16.0093 25.2528 16.151L19.4169 25.2623C19.3506 25.3663 19.2645 25.4562 19.1635 25.5268C19.0624 25.5975 18.9484 25.6475 18.828 25.674C18.7076 25.7006 18.5831 25.7031 18.4618 25.6814C18.3404 25.6598 18.2244 25.6144 18.1206 25.5479C18.0168 25.4814 17.9271 25.3951 17.8567 25.2939C17.7863 25.1927 17.7365 25.0786 17.7103 24.9581C17.684 24.8376 17.6818 24.7132 17.7037 24.5918C17.7256 24.4705 17.7713 24.3547 17.838 24.251L17.8381 24.2508ZM22.746 7.02385C22.9218 7.19966 23.0205 7.43811 23.0205 7.68675C23.0205 7.93538 22.9218 8.17383 22.746 8.34965L8.92615 22.1695C8.74997 22.3436 8.51208 22.4408 8.26443 22.4401C8.01677 22.4393 7.77948 22.3406 7.60436 22.1655C7.42924 21.9904 7.33053 21.7531 7.32978 21.5054C7.32903 21.2578 7.4263 21.0199 7.60035 20.8437L21.42 7.02385C21.507 6.93677 21.6104 6.8677 21.7241 6.82057C21.8379 6.77344 21.9598 6.74919 22.083 6.74919C22.2061 6.74919 22.328 6.77344 22.4418 6.82057C22.5555 6.8677 22.6589 6.93677 22.746 7.02385ZM6.30279 5.05967C6.54009 4.19072 6.38968 3.53623 5.85578 3.11348C5.25812 2.64063 4.26302 2.55684 3.59031 2.92328C3.07925 3.2016 2.85279 3.68248 2.91724 4.35297C2.92901 4.47553 2.91653 4.5992 2.8805 4.71693C2.84447 4.83466 2.78561 4.94414 2.70727 5.03913C2.62893 5.13411 2.53265 5.21273 2.42393 5.27051C2.3152 5.32828 2.19617 5.36407 2.07361 5.37584C1.95105 5.38761 1.82738 5.37512 1.70965 5.3391C1.59192 5.30307 1.48244 5.24421 1.38745 5.16587C1.29247 5.08753 1.21385 4.99125 1.15607 4.88253C1.0983 4.7738 1.06251 4.65476 1.05074 4.53221C0.913571 3.10627 1.51234 1.91981 2.69341 1.27662C4.0191 0.554747 5.83826 0.708848 7.01904 1.64307C8.14802 2.53633 8.54611 3.96168 8.11134 5.55361C7.81791 6.62811 6.81349 7.41186 5.65041 8.31953C5.02252 8.80949 4.34529 9.33795 3.77746 9.93086H7.66099C7.90963 9.93086 8.14809 10.0296 8.32391 10.2054C8.49972 10.3813 8.59849 10.6197 8.59849 10.8684C8.59849 11.117 8.49972 11.3555 8.32391 11.5313C8.14809 11.7071 7.90963 11.8059 7.66099 11.8059H1.95718C1.7983 11.8059 1.64201 11.7656 1.50298 11.6887C1.36396 11.6117 1.24677 11.5007 1.16241 11.3661C1.07806 11.2314 1.02931 11.0776 1.02074 10.9189C1.01218 10.7603 1.04407 10.602 1.11343 10.4591C1.87662 8.88619 3.26857 7.79998 4.49664 6.84162C5.32111 6.1982 6.1733 5.53316 6.30279 5.05967ZM31.0001 15.9165C31.0001 18.8832 30.1203 21.7833 28.4721 24.2501C26.8239 26.7169 24.4812 28.6395 21.7403 29.7748C18.9994 30.9101 15.9834 31.2071 13.0737 30.6284C10.164 30.0496 7.4912 28.6209 5.39341 26.5231C3.99618 25.1335 2.88844 23.4805 2.13432 21.6599C1.3802 19.8393 0.994673 17.8871 1.00006 15.9165C1.00006 15.6679 1.09883 15.4294 1.27464 15.2536C1.45046 15.0778 1.68892 14.979 1.93756 14.979C2.1862 14.979 2.42465 15.0778 2.60047 15.2536C2.77628 15.4294 2.87506 15.6679 2.87506 15.9165C2.87506 23.1537 8.76291 29.0415 16.0001 29.0415C23.2372 29.0415 29.1251 23.1537 29.1251 15.9165C29.1251 9.34604 24.2199 3.75145 17.7153 2.90283C17.592 2.88846 17.4727 2.84972 17.3644 2.78886C17.2561 2.728 17.1611 2.64623 17.0847 2.5483C17.0083 2.45038 16.9521 2.33825 16.9194 2.21843C16.8867 2.09861 16.8781 1.97349 16.8942 1.85033C16.9103 1.72717 16.9506 1.60844 17.013 1.50102C17.0753 1.3936 17.1584 1.29964 17.2574 1.2246C17.3563 1.14955 17.4692 1.09493 17.5895 1.06388C17.7098 1.03284 17.835 1.026 17.9579 1.04377C21.5659 1.51926 24.878 3.29 27.2774 6.02615C29.6768 8.76231 30.9998 12.2773 31.0001 15.9165Z" fill="#5B00CE" stroke="#5B00CE" stroke-width="0.2"/>
</svg>
