<svg width="30" height="30" viewBox="0 0 30 30" fill="none" xmlns="http://www.w3.org/2000/svg">
<g clip-path="url(#clip0_607_993)">
<path d="M6.6856 7.84942C6.76108 8.01107 6.88111 8.14783 7.03161 8.24364C7.1821 8.33945 7.35681 8.39033 7.53521 8.3903H12.0938V10.0005C12.0938 10.2492 12.1926 10.4876 12.3684 10.6634C12.5442 10.8392 12.7827 10.938 13.0313 10.938C13.2799 10.938 13.5184 10.8392 13.6942 10.6634C13.87 10.4876 13.9688 10.2492 13.9688 10.0005V8.3903H14.4006C14.6493 8.3903 14.8877 8.29153 15.0636 8.11571C15.2394 7.9399 15.3381 7.70144 15.3381 7.4528C15.3381 7.20416 15.2394 6.9657 15.0636 6.78989C14.8877 6.61407 14.6493 6.5153 14.4006 6.5153H13.9688V0.88942C13.9688 0.696989 13.9095 0.509234 13.7991 0.351644C13.6886 0.194054 13.5324 0.0742629 13.3515 0.00853398C13.1707 -0.057195 12.974 -0.0656778 12.7881 -0.0157629C12.6023 0.034152 12.4363 0.140047 12.3127 0.287545L6.81627 6.85092C6.70175 6.98768 6.62863 7.15427 6.60549 7.33114C6.58235 7.508 6.61014 7.6878 6.6856 7.84942ZM12.0938 3.46919V6.51542H9.54293L12.0938 3.46919ZM16.8381 23.3833L21.7496 15.7153H18.1333C17.8847 15.7153 17.6462 15.6165 17.4704 15.4407C17.2946 15.2649 17.1958 15.0264 17.1958 14.7778C17.1958 14.5291 17.2946 14.2907 17.4704 14.1149C17.6462 13.9391 17.8847 13.8403 18.1333 13.8403H23.4634C23.6316 13.8403 23.7968 13.8855 23.9415 13.9713C24.0862 14.0571 24.2051 14.1803 24.2859 14.3279C24.3666 14.4755 24.4061 14.6421 24.4003 14.8102C24.3945 14.9783 24.3436 15.1418 24.2528 15.2834L18.4169 24.3948C18.3506 24.4987 18.2645 24.5886 18.1635 24.6593C18.0624 24.7299 17.9484 24.7799 17.828 24.8065C17.7076 24.833 17.5831 24.8355 17.4618 24.8139C17.3404 24.7922 17.2244 24.7469 17.1206 24.6804C17.0168 24.6139 16.9271 24.5275 16.8567 24.4263C16.7863 24.3251 16.7365 24.211 16.7103 24.0905C16.684 23.9701 16.6818 23.8456 16.7037 23.7243C16.7256 23.6029 16.7713 23.4871 16.838 23.3834L16.8381 23.3833ZM21.746 6.15629C21.9218 6.33211 22.0205 6.57056 22.0205 6.81919C22.0205 7.06783 21.9218 7.30628 21.746 7.4821L7.92615 21.302C7.74997 21.476 7.51208 21.5733 7.26443 21.5725C7.01677 21.5718 6.77948 21.4731 6.60436 21.2979C6.42924 21.1228 6.33053 20.8855 6.32978 20.6379C6.32903 20.3902 6.4263 20.1523 6.60035 19.9762L20.42 6.15629C20.507 6.06922 20.6104 6.00014 20.7241 5.95301C20.8379 5.90589 20.9598 5.88163 21.083 5.88163C21.2061 5.88163 21.328 5.90589 21.4418 5.95301C21.5555 6.00014 21.6589 6.06922 21.746 6.15629ZM5.30279 4.19212C5.54009 3.32317 5.38968 2.66868 4.85578 2.24592C4.25812 1.77307 3.26302 1.68928 2.59031 2.05573C2.07925 2.33405 1.85279 2.81493 1.91724 3.48542C1.92901 3.60797 1.91653 3.73165 1.8805 3.84938C1.84447 3.96711 1.78561 4.07659 1.70727 4.17157C1.62893 4.26656 1.53265 4.34518 1.42393 4.40295C1.3152 4.46072 1.19617 4.49652 1.07361 4.50829C0.951054 4.52006 0.827379 4.50757 0.709648 4.47154C0.591917 4.43552 0.482435 4.37665 0.387453 4.29831C0.29247 4.21998 0.213848 4.1237 0.156075 4.01497C0.0983011 3.90625 0.0625081 3.78721 0.0507392 3.66465C-0.0864288 2.23872 0.512341 1.05225 1.69341 0.409068C3.0191 -0.312807 4.83826 -0.158705 6.01904 0.775513C7.14802 1.66877 7.54611 3.09413 7.11134 4.68606C6.81791 5.76055 5.81349 6.5443 4.65041 7.45198C4.02252 7.94194 3.34529 8.4704 2.77746 9.06331H6.66099C6.90963 9.06331 7.14809 9.16208 7.32391 9.33789C7.49972 9.51371 7.59849 9.75217 7.59849 10.0008C7.59849 10.2494 7.49972 10.4879 7.32391 10.6637C7.14809 10.8395 6.90963 10.9383 6.66099 10.9383H0.957184C0.798298 10.9384 0.642005 10.898 0.502983 10.8211C0.36396 10.7442 0.246769 10.6332 0.162415 10.4985C0.0780605 10.3639 0.0293105 10.21 0.0207428 10.0514C0.0121751 9.8927 0.0440707 9.73448 0.113435 9.59153C0.876618 8.01864 2.26857 6.93243 3.49664 5.97407C4.32111 5.33065 5.1733 4.66561 5.30279 4.19212ZM30.0001 15.049C30.0001 18.0157 29.1203 20.9158 27.4721 23.3825C25.8239 25.8493 23.4812 27.7719 20.7403 28.9072C17.9994 30.0425 14.9834 30.3396 12.0737 29.7608C9.16395 29.182 6.4912 27.7534 4.39341 25.6556C2.99618 24.2659 1.88844 22.613 1.13432 20.7923C0.380199 18.9717 -0.00532717 17.0196 5.55972e-05 15.049C5.55972e-05 14.8003 0.0988277 14.5619 0.274643 14.386C0.450458 14.2102 0.688915 14.1115 0.937556 14.1115C1.1862 14.1115 1.42465 14.2102 1.60047 14.386C1.77628 14.5619 1.87506 14.8003 1.87506 15.049C1.87506 22.2861 7.76291 28.174 15.0001 28.174C22.2372 28.174 28.1251 22.2861 28.1251 15.049C28.1251 8.47848 23.2199 2.88389 16.7153 2.03528C16.592 2.02091 16.4727 1.98217 16.3644 1.9213C16.2561 1.86044 16.1611 1.77867 16.0847 1.68075C16.0083 1.58283 15.9521 1.4707 15.9194 1.35088C15.8867 1.23106 15.8781 1.10593 15.8942 0.982776C15.9103 0.859618 15.9506 0.740882 16.013 0.633463C16.0753 0.526045 16.1584 0.432085 16.2574 0.357043C16.3563 0.282001 16.4692 0.227372 16.5895 0.19633C16.7098 0.165288 16.835 0.158451 16.9579 0.176216C20.5659 0.651708 23.878 2.42244 26.2774 5.1586C28.6768 7.89476 29.9998 11.4098 30.0001 15.049Z" fill="#404346"/>
</g>
<defs>
<clipPath id="clip0_607_993">
<rect width="30" height="30" fill="white"/>
</clipPath>
</defs>
</svg>
