<svg width="27" height="21" viewBox="0 0 27 21" fill="none" xmlns="http://www.w3.org/2000/svg">
<path d="M26.8447 6.85838C26.7798 6.77893 26.6981 6.71486 26.6055 6.67075C26.5128 6.62664 26.4116 6.6036 26.309 6.60328H23.6813C23.0328 4.89295 22.188 3.21719 21.2278 2.58463C17.906 0.399362 9.09507 0.399362 5.77328 2.58463C4.81234 3.21788 3.971 4.89571 3.31909 6.60328H0.691376C0.58871 6.60321 0.487326 6.62608 0.394631 6.67022C0.301935 6.71435 0.22027 6.77864 0.155602 6.85838C0.0905401 6.93785 0.0441025 7.03089 0.0196983 7.13066C-0.00470601 7.23043 -0.00645741 7.3344 0.0145726 7.43494L0.403786 9.32086C0.436056 9.47651 0.52098 9.61629 0.644256 9.71665C0.767532 9.81701 0.921628 9.87181 1.08059 9.87184H1.85902C1.10755 10.7388 0.743225 11.8304 0.738386 12.9226C0.733546 14.2721 1.24582 15.4916 2.18256 16.3544C2.19293 16.3633 2.2033 16.3696 2.21297 16.3786V19.0173C2.21297 19.5891 2.67754 20.0543 3.24996 20.0543H5.67373C6.24614 20.0543 6.71071 19.5891 6.71071 19.0173V17.9568H20.2889V19.0173C20.2889 19.5891 20.7535 20.0543 21.3259 20.0543H23.7497C24.3207 20.0543 24.7867 19.5891 24.7867 19.0173V16.4304C25.7808 15.5199 26.2557 14.2673 26.262 13.0167C26.2661 11.887 25.8852 10.7554 25.0895 9.87046H25.9198C26.079 9.87092 26.2334 9.8162 26.3568 9.71562C26.4802 9.61504 26.5649 9.47481 26.5966 9.31879L26.9865 7.43355C27.0065 7.33316 27.0043 7.22957 26.9798 7.13016C26.9553 7.03074 26.9092 6.93795 26.8447 6.85838ZM6.91188 4.31639C9.55964 2.57357 17.44 2.57357 20.0864 4.31639C20.6007 4.65375 21.2623 6.01773 21.8686 7.68796H5.13104C5.73595 6.01842 6.39754 4.65513 6.91188 4.31639ZM3.81062 13.1826C3.81071 12.6416 4.0257 12.1228 4.40829 11.7404C4.79088 11.3579 5.30973 11.1431 5.85071 11.1432C6.39168 11.1433 6.91046 11.3583 7.29292 11.7409C7.67538 12.1234 7.89019 12.6423 7.8901 13.1833C7.89006 13.4511 7.83725 13.7164 7.7347 13.9638C7.63215 14.2113 7.48187 14.4361 7.29243 14.6255C7.10299 14.8149 6.87811 14.9651 6.63062 15.0675C6.38313 15.17 6.11788 15.2227 5.85001 15.2227C5.58215 15.2226 5.31692 15.1698 5.06946 15.0673C4.82201 14.9647 4.59717 14.8144 4.4078 14.625C4.02534 14.2424 3.81053 13.7236 3.81062 13.1826ZM21.1759 15.2227C20.6348 15.2227 20.1158 15.0077 19.7331 14.625C19.3505 14.2424 19.1355 13.7234 19.1355 13.1822C19.1355 12.6411 19.3505 12.1221 19.7331 11.7394C20.1158 11.3568 20.6348 11.1418 21.1759 11.1418C21.7171 11.1418 22.2361 11.3568 22.6187 11.7394C23.0014 12.1221 23.2163 12.6411 23.2163 13.1822C23.2163 13.7234 23.0014 14.2424 22.6187 14.625C22.2361 15.0077 21.7171 15.2227 21.1759 15.2227Z" fill="#5B00CE"/>
</svg>
