<svg width="24" height="22" viewBox="0 0 24 22" fill="none" xmlns="http://www.w3.org/2000/svg">
<g id="&#208;&#188;&#208;&#181;&#208;&#189;&#209;&#142;">
<path id="Vector" d="M0 1.33333C0 0.596954 0.596954 0 1.33333 0H22.6667C23.403 0 24 0.596954 24 1.33333C24 2.06971 23.403 2.66667 22.6667 2.66667H1.33333C0.596954 2.66667 0 2.06971 0 1.33333ZM0 10.6667C0 9.93029 0.596954 9.33333 1.33333 9.33333H14.6667C15.403 9.33333 16 9.93029 16 10.6667C16 11.403 15.403 12 14.6667 12H1.33333C0.596954 12 0 11.403 0 10.6667ZM0 20C0 19.2636 0.596954 18.6667 1.33333 18.6667H22.6667C23.403 18.6667 24 19.2636 24 20C24 20.7364 23.403 21.3333 22.6667 21.3333H1.33333C0.596954 21.3333 0 20.7364 0 20Z" fill="black"/>
</g>
</svg>
