<svg viewBox="0 0 46 52" fill="none" xmlns="http://www.w3.org/2000/svg">
<path d="M34.875 5.9V2C34.875 0.975 34.025 0.125 33 0.125C31.975 0.125 31.125 0.975 31.125 2V5.75H14.875V2C14.875 0.975 14.025 0.125 13 0.125C11.975 0.125 11.125 0.975 11.125 2V5.9C4.375 6.525 1.1 10.55 0.6 16.525C0.55 17.25 1.15 17.85 1.85 17.85H44.15C44.875 17.85 45.475 17.225 45.4 16.525C44.9 10.55 41.625 6.525 34.875 5.9ZM43 21.6H3C1.625 21.6 0.5 22.725 0.5 24.1V39.5C0.5 47 4.25 52 13 52H33C41.75 52 45.5 47 45.5 39.5V24.1C45.5 22.725 44.375 21.6 43 21.6ZM16.025 42.525C15.9 42.625 15.775 42.75 15.65 42.825C15.5 42.925 15.35 43 15.2 43.05C15.05 43.125 14.9 43.175 14.75 43.2C14.575 43.225 14.425 43.25 14.25 43.25C13.925 43.25 13.6 43.175 13.3 43.05C12.975 42.925 12.725 42.75 12.475 42.525C12.025 42.05 11.75 41.4 11.75 40.75C11.75 40.1 12.025 39.45 12.475 38.975C12.725 38.75 12.975 38.575 13.3 38.45C13.75 38.25 14.25 38.2 14.75 38.3C14.9 38.325 15.05 38.375 15.2 38.45C15.35 38.5 15.5 38.575 15.65 38.675L16.025 38.975C16.475 39.45 16.75 40.1 16.75 40.75C16.75 41.4 16.475 42.05 16.025 42.525ZM16.025 33.775C15.55 34.225 14.9 34.5 14.25 34.5C13.6 34.5 12.95 34.225 12.475 33.775C12.025 33.3 11.75 32.65 11.75 32C11.75 31.35 12.025 30.7 12.475 30.225C13.175 29.525 14.275 29.3 15.2 29.7C15.525 29.825 15.8 30 16.025 30.225C16.475 30.7 16.75 31.35 16.75 32C16.75 32.65 16.475 33.3 16.025 33.775ZM24.775 42.525C24.3 42.975 23.65 43.25 23 43.25C22.35 43.25 21.7 42.975 21.225 42.525C20.775 42.05 20.5 41.4 20.5 40.75C20.5 40.1 20.775 39.45 21.225 38.975C22.15 38.05 23.85 38.05 24.775 38.975C25.225 39.45 25.5 40.1 25.5 40.75C25.5 41.4 25.225 42.05 24.775 42.525ZM24.775 33.775L24.4 34.075C24.25 34.175 24.1 34.25 23.95 34.3C23.8 34.375 23.65 34.425 23.5 34.45C23.325 34.475 23.175 34.5 23 34.5C22.35 34.5 21.7 34.225 21.225 33.775C20.775 33.3 20.5 32.65 20.5 32C20.5 31.35 20.775 30.7 21.225 30.225C21.45 30 21.725 29.825 22.05 29.7C22.975 29.3 24.075 29.525 24.775 30.225C25.225 30.7 25.5 31.35 25.5 32C25.5 32.65 25.225 33.3 24.775 33.775ZM33.525 42.525C33.05 42.975 32.4 43.25 31.75 43.25C31.1 43.25 30.45 42.975 29.975 42.525C29.525 42.05 29.25 41.4 29.25 40.75C29.25 40.1 29.525 39.45 29.975 38.975C30.9 38.05 32.6 38.05 33.525 38.975C33.975 39.45 34.25 40.1 34.25 40.75C34.25 41.4 33.975 42.05 33.525 42.525ZM33.525 33.775L33.15 34.075C33 34.175 32.85 34.25 32.7 34.3C32.55 34.375 32.4 34.425 32.25 34.45C32.075 34.475 31.9 34.5 31.75 34.5C31.1 34.5 30.45 34.225 29.975 33.775C29.525 33.3 29.25 32.65 29.25 32C29.25 31.35 29.525 30.7 29.975 30.225C30.225 30 30.475 29.825 30.8 29.7C31.25 29.5 31.75 29.45 32.25 29.55C32.4 29.575 32.55 29.625 32.7 29.7C32.85 29.75 33 29.825 33.15 29.925L33.525 30.225C33.975 30.7 34.25 31.35 34.25 32C34.25 32.65 33.975 33.3 33.525 33.775Z" fill="#5B00CE"/>
</svg>
