<svg width="20" height="20" viewBox="0 0 20 20" fill="none" xmlns="http://www.w3.org/2000/svg">
<path d="M1.51459 18.8187C0.993887 18.298 0.993887 17.4537 1.51459 16.933L16.5995 1.8481C17.1202 1.3274 17.9644 1.3274 18.4851 1.8481C19.0058 2.3688 19.0058 3.21302 18.4851 3.73372L3.4002 18.8187C2.87951 19.3394 2.03529 19.3394 1.51459 18.8187Z" fill="black"/>
<path d="M18.4852 18.8187C19.0059 18.298 19.0059 17.4537 18.4852 16.933L3.40023 1.8481C2.87953 1.3274 2.03531 1.3274 1.51461 1.8481C0.993908 2.3688 0.993909 3.21302 1.51461 3.73372L16.5996 18.8187C17.1203 19.3394 17.9645 19.3394 18.4852 18.8187Z" fill="black"/>
</svg>
