<svg width="27" height="27" viewBox="0 0 27 27" fill="none" xmlns="http://www.w3.org/2000/svg">
<path fill-rule="evenodd" clip-rule="evenodd" d="M7.23215 22.4196H19.7678V24.3482H7.23215V22.4196ZM7.23215 18.5625H19.7678V20.491H7.23215V18.5625ZM7.23215 14.7053H19.7678V16.6339H7.23215V14.7053ZM21.6932 24.3482V13.741C21.6932 13.2085 21.2615 12.7767 20.7289 12.7767H6.27101C5.73866 12.7767 5.30703 13.2081 5.30671 13.7405L5.30033 24.3476V24.3482H1.93177C0.864949 24.3482 0 23.4825 0 22.4161V9.40538C0 8.47193 0.648527 7.52577 1.51965 7.19075L13.1538 2.71608C13.3766 2.63039 13.6233 2.63039 13.8461 2.71608L25.4802 7.19075C26.3507 7.52551 27 8.47267 27 9.40538V22.4161C27 23.4827 26.1336 24.3482 25.0682 24.3482H21.6932Z" fill="#5B00CE"/>
</svg>
