<svg viewBox="0 0 62 55" fill="none" xmlns="http://www.w3.org/2000/svg">
<path d="M53.575 13.0898C53.5678 12.6977 53.4517 12.315 53.2391 11.9835C53.0266 11.6519 52.7259 11.3842 52.3697 11.2095L31.9822 1.11181C31.6774 0.96085 31.3411 0.882233 31 0.882233C30.6589 0.882233 30.3226 0.96085 30.0178 1.11181L9.63031 11.2095C9.27381 11.3839 8.97281 11.6515 8.76023 11.9831C8.54765 12.3147 8.43168 12.6976 8.425 13.0898C8.33094 18.875 9.28906 42.1992 30.2628 49.2242C30.7309 49.3816 31.2669 49.3816 31.735 49.2242C52.7109 42.1992 53.6691 18.875 53.575 13.0898ZM40.4391 23.1724L37.1622 26.3205C37.0101 26.4666 36.8963 26.647 36.8308 26.8461C36.7652 27.0452 36.7498 27.2571 36.7859 27.4633L37.5603 31.9074C37.6014 32.1448 37.5743 32.3888 37.4821 32.6119C37.3899 32.8349 37.2363 33.0281 37.0385 33.1696C36.8408 33.3111 36.6069 33.3953 36.3632 33.4127C36.1195 33.4301 35.8757 33.38 35.6594 33.268L31.6103 31.1699C31.4225 31.0723 31.2134 31.0213 31.0011 31.0213C30.7888 31.0213 30.5797 31.0723 30.3919 31.1699L26.3428 33.268C26.1265 33.38 25.8827 33.4301 25.639 33.4127C25.3953 33.3953 25.1614 33.3111 24.9637 33.1696C24.7659 33.0281 24.6123 32.8349 24.5201 32.6119C24.4279 32.3888 24.4008 32.1448 24.4419 31.9074L25.2162 27.4633C25.252 27.2571 25.2364 27.0453 25.1709 26.8463C25.1053 26.6472 24.9918 26.4668 24.84 26.3205L21.5631 23.1724C21.3885 23.0041 21.2651 22.7911 21.2067 22.5573C21.1484 22.3235 21.1575 22.0784 21.233 21.8494C21.3086 21.6205 21.4475 21.4169 21.6341 21.2617C21.8208 21.1065 22.0477 21.0057 22.2894 20.9709L26.8175 20.3218C27.0279 20.2918 27.2276 20.2117 27.3995 20.0885C27.5714 19.9653 27.7103 19.8026 27.8041 19.6146L29.8297 15.5716C29.938 15.3557 30.1053 15.1739 30.3129 15.0468C30.5205 14.9196 30.76 14.8523 31.0044 14.8523C31.2488 14.8523 31.4883 14.9196 31.6958 15.0468C31.9034 15.1739 32.0708 15.3557 32.1791 15.5716L34.2047 19.6146C34.2988 19.8024 34.4377 19.9649 34.6095 20.0881C34.7814 20.2113 34.981 20.2915 35.1912 20.3218L39.7194 20.9709C39.9605 21.0067 40.1866 21.1082 40.3724 21.2638C40.5582 21.4195 40.6963 21.6231 40.7711 21.8519C40.8459 22.0806 40.8544 22.3254 40.7958 22.5587C40.7371 22.792 40.6136 23.0045 40.4391 23.1724ZM52.7766 35.2948C50.6613 39.603 47.7628 43.5511 43.9434 46.7704L51.3853 54.106L54.1634 46.7747L61.625 44.0169L52.7766 35.2948ZM9.22344 35.2948L0.375 44.0169L7.83437 46.7769L10.6125 54.1081L18.0544 46.7726C14.2372 43.5533 11.3387 39.6052 9.22344 35.2948Z" fill="#5B00CE"/>
</svg>
