<svg width="17" height="18" viewBox="0 0 17 18" fill="none" xmlns="http://www.w3.org/2000/svg">
<path fill-rule="evenodd" clip-rule="evenodd" d="M8.25 0.75C3.69375 0.75 0 4.44375 0 9C0 13.5562 3.69375 17.25 8.25 17.25C12.8062 17.25 16.5 13.5562 16.5 9C16.5 4.44375 12.8062 0.75 8.25 0.75ZM7.875 4.5C7.67609 4.5 7.48532 4.57902 7.34467 4.71967C7.20402 4.86032 7.125 5.05109 7.125 5.25C7.125 5.44891 7.20402 5.63968 7.34467 5.78033C7.48532 5.92098 7.67609 6 7.875 6H8.25C8.44891 6 8.63968 5.92098 8.78033 5.78033C8.92098 5.63968 9 5.44891 9 5.25C9 5.05109 8.92098 4.86032 8.78033 4.71967C8.63968 4.57902 8.44891 4.5 8.25 4.5H7.875ZM6.75 7.5C6.55109 7.5 6.36032 7.57902 6.21967 7.71967C6.07902 7.86032 6 8.05109 6 8.25C6 8.44891 6.07902 8.63968 6.21967 8.78033C6.36032 8.92098 6.55109 9 6.75 9H7.5V11.25H6.75C6.55109 11.25 6.36032 11.329 6.21967 11.4697C6.07902 11.6103 6 11.8011 6 12C6 12.1989 6.07902 12.3897 6.21967 12.5303C6.36032 12.671 6.55109 12.75 6.75 12.75H9.75C9.94891 12.75 10.1397 12.671 10.2803 12.5303C10.421 12.3897 10.5 12.1989 10.5 12C10.5 11.8011 10.421 11.6103 10.2803 11.4697C10.1397 11.329 9.94891 11.25 9.75 11.25H9V8.25C9 8.05109 8.92098 7.86032 8.78033 7.71967C8.63968 7.57902 8.44891 7.5 8.25 7.5H6.75Z" fill="white"/>
</svg>
