<svg viewBox="0 0 27 27" fill="none" xmlns="http://www.w3.org/2000/svg">
<path d="M20.2501 1.80885C22.2863 2.98451 23.9801 4.67156 25.1639 6.70301C26.3477 8.73445 26.9804 11.0398 26.9994 13.391C27.0184 15.7421 26.423 18.0574 25.2722 20.1077C24.1214 22.158 22.455 23.8722 20.4381 25.0806C18.4212 26.289 16.1236 26.9497 13.7729 26.9972C11.4221 27.0448 9.09973 26.4776 7.03556 25.3518C4.97139 24.226 3.23704 22.5807 2.0042 20.5786C0.771361 18.5765 0.0827815 16.2872 0.00662817 13.9373L-0.00012207 13.4999L0.00662817 13.0625C0.0822333 10.731 0.760677 8.4589 1.97582 6.46769C3.19095 4.47649 4.90132 2.83411 6.94017 1.7007C8.97901 0.567277 11.2768 -0.0185096 13.6094 0.000445832C15.942 0.0194012 18.23 0.642452 20.2501 1.80885ZM13.5 12.1499H12.15L11.9921 12.1593C11.6504 12.1999 11.3371 12.3695 11.1163 12.6334C10.8954 12.8972 10.7837 13.2355 10.8038 13.579C10.824 13.9225 10.9746 14.2453 11.2248 14.4815C11.475 14.7177 11.8059 14.8495 12.15 14.8499V18.8999L12.1595 19.0578C12.1982 19.3862 12.356 19.689 12.6031 19.9087C12.8502 20.1284 13.1694 20.2498 13.5 20.2499H14.8501L15.008 20.2404C15.3364 20.2017 15.6392 20.0438 15.8589 19.7968C16.0786 19.5497 16.2 19.2305 16.2001 18.8999L16.1906 18.7419C16.1551 18.4406 16.0191 18.16 15.8045 17.9454C15.5899 17.7309 15.3094 17.5948 15.008 17.5593L14.8501 17.5499V13.4999L14.8406 13.3419C14.8019 13.0135 14.6441 12.7107 14.397 12.491C14.1499 12.2713 13.8307 12.1499 13.5 12.1499ZM13.5135 6.74985L13.3421 6.7593C13.0004 6.79994 12.6871 6.96952 12.4663 7.23338C12.2454 7.49724 12.1337 7.83547 12.1538 8.17897C12.174 8.52247 12.3246 8.8453 12.5748 9.08151C12.825 9.31772 13.156 9.44947 13.5 9.44985L13.6715 9.4404C14.0132 9.39976 14.3264 9.23019 14.5473 8.96633C14.7681 8.70247 14.8799 8.36423 14.8597 8.02074C14.8396 7.67724 14.689 7.35441 14.4388 7.1182C14.1886 6.88199 13.8576 6.75024 13.5135 6.74985Z" fill="white"/>
</svg>
