<svg width="397" height="375" viewBox="0 0 397 375" fill="none" xmlns="http://www.w3.org/2000/svg">
<path d="M198.5 0C165.597 0 134.041 13.0693 110.775 36.3327C87.5083 59.5961 74.4375 91.1481 74.4375 124.048V195.499C60.5444 200.75 47.8154 208.673 36.9706 218.82C2.72937 252.809 0 325.749 0 347.333C0 368.918 2.72937 441.858 36.9706 475.847C67.2419 505.866 132.747 521 198.5 521C264.253 521 329.758 506.114 360.029 476.095C394.271 441.858 397 368.918 397 347.333C397 325.749 394.271 252.809 360.029 218.82C349.185 208.673 336.456 200.75 322.562 195.499V124.048C322.562 107.757 319.354 91.6268 313.119 76.5766C306.884 61.5265 297.746 47.8516 286.225 36.3327C274.705 24.8138 261.029 15.6765 245.977 9.44256C230.925 3.20859 214.792 0 198.5 0ZM124.062 124.048C124.062 104.308 131.905 85.3767 145.865 71.4187C159.824 57.4606 178.758 49.619 198.5 49.619C218.242 49.619 237.176 57.4606 251.135 71.4187C265.095 85.3767 272.938 104.308 272.938 124.048V180.613C223.715 171.681 173.285 171.681 124.062 180.613V124.048ZM223.312 347.333V372.143C223.312 378.723 220.698 385.033 216.045 389.686C211.392 394.339 205.081 396.952 198.5 396.952C191.919 396.952 185.608 394.339 180.955 389.686C176.302 385.033 173.688 378.723 173.688 372.143V347.333C167.107 347.333 160.796 344.719 156.142 340.067C151.489 335.414 148.875 329.104 148.875 322.524C148.875 315.944 151.489 309.634 156.142 304.981C160.796 300.328 167.107 297.714 173.688 297.714H223.312C229.893 297.714 236.204 300.328 240.858 304.981C245.511 309.634 248.125 315.944 248.125 322.524C248.125 329.104 245.511 335.414 240.858 340.067C236.204 344.719 229.893 347.333 223.312 347.333Z" fill="black" fill-opacity="0.15"/>
</svg>
