<svg width="477" height="627" viewBox="0 0 477 627" fill="none" xmlns="http://www.w3.org/2000/svg">
<path d="M238.333 0.791626C198.827 0.791626 160.939 16.4854 133.004 44.4205C105.069 72.3556 89.375 110.244 89.375 149.75V235.55C72.6939 241.855 57.4106 251.369 44.3896 263.554C3.27708 304.369 0 391.956 0 417.875C0 443.794 3.27708 531.381 44.3896 572.196C80.7354 608.244 159.385 626.417 238.333 626.417C317.281 626.417 395.931 608.542 432.277 572.494C473.39 531.381 476.667 443.794 476.667 417.875C476.667 391.956 473.39 304.369 432.277 263.554C419.256 251.369 403.973 241.855 387.292 235.55V149.75C387.292 130.188 383.439 110.819 375.953 92.7461C368.467 74.6736 357.495 58.2526 343.663 44.4205C329.831 30.5884 313.41 19.6163 295.337 12.1304C277.265 4.64455 257.895 0.791626 238.333 0.791626ZM148.958 149.75C148.958 126.046 158.375 103.313 175.136 86.5523C191.897 69.7912 214.63 60.375 238.333 60.375C262.037 60.375 284.77 69.7912 301.531 86.5523C318.292 103.313 327.708 126.046 327.708 149.75V217.675C268.608 206.949 208.059 206.949 148.958 217.675V149.75ZM268.125 417.875V447.667C268.125 455.568 264.986 463.146 259.399 468.733C253.812 474.32 246.235 477.458 238.333 477.458C230.432 477.458 222.854 474.32 217.267 468.733C211.68 463.146 208.542 455.568 208.542 447.667V417.875C200.64 417.875 193.063 414.736 187.476 409.149C181.889 403.562 178.75 395.985 178.75 388.083C178.75 380.182 181.889 372.604 187.476 367.017C193.063 361.43 200.64 358.292 208.542 358.292H268.125C276.026 358.292 283.604 361.43 289.191 367.017C294.778 372.604 297.917 380.182 297.917 388.083C297.917 395.985 294.778 403.562 289.191 409.149C283.604 414.736 276.026 417.875 268.125 417.875Z" fill="black" fill-opacity="0.15"/>
</svg>
