<svg width="27" height="41" viewBox="0 0 27 41" fill="none" xmlns="http://www.w3.org/2000/svg">
<path d="M18.8119 14.0143C20.0866 14.553 21.2794 15.2677 22.3555 16.1377V9.99726C22.3555 4.89097 18.2007 0.736084 13.0944 0.736084H12.9519C7.8502 0.736084 3.69531 4.89097 3.69531 9.99726V16.1377C4.77147 15.2677 5.96428 14.553 7.23892 14.0143C7.58363 13.8672 7.93753 13.7339 8.29143 13.6144V9.99726C8.29143 7.42343 10.3827 5.3322 12.9565 5.3322H13.099C15.6728 5.3322 17.764 7.42343 17.764 9.99726V13.619C18.1133 13.7339 18.4672 13.8672 18.8119 14.0143Z" fill="#5B00CE"/>
<path d="M0 27.7107C0 34.9036 5.83247 40.736 13.0254 40.736C20.2183 40.736 26.0508 34.9081 26.0508 27.7107C26.0508 24.1762 24.6398 20.9682 22.3556 18.6195C21.0686 17.3005 19.506 16.2525 17.7594 15.5677C16.2933 14.9932 14.6938 14.6807 13.0254 14.6807C11.357 14.6807 9.7576 14.9932 8.29144 15.5677C6.54492 16.2479 4.98224 17.2959 3.69532 18.6195C1.40641 20.9682 0 24.1762 0 27.7107ZM9.67018 25.0817C9.71614 23.303 11.1639 21.8552 12.9426 21.8138C14.8316 21.7678 16.3805 23.2892 16.3805 25.169C16.3805 25.3666 16.3621 25.5596 16.33 25.7435C16.1644 26.6949 15.5992 27.513 14.8085 28.0094C14.4822 28.2162 14.3168 28.6023 14.3996 28.9746L15.397 33.704C15.4568 33.989 15.2407 34.2602 14.9465 34.2602H11.1042C10.8101 34.2602 10.594 33.9935 10.6538 33.704L11.6511 28.9746C11.7292 28.5977 11.5684 28.2116 11.2421 28.0048C10.4516 27.5084 9.88625 26.6949 9.72074 25.7389C9.68286 25.5219 9.66593 25.3019 9.67018 25.0817Z" fill="#5B00CE"/>
</svg>
