<svg width="25" height="36" viewBox="0 0 25 36" fill="none" xmlns="http://www.w3.org/2000/svg">
<path fill-rule="evenodd" clip-rule="evenodd" d="M2.39575 8.44246C2.39575 6.31521 3.2408 4.27508 4.745 2.77088C6.2492 1.26668 8.28933 0.421631 10.4166 0.421631H14.5833C16.7105 0.421631 18.7506 1.26668 20.2548 2.77088C21.759 4.27508 22.6041 6.31521 22.6041 8.44246V14.38H2.39575V8.44246ZM10.4166 3.9633C9.22864 3.9633 8.08934 4.43521 7.24934 5.27521C6.40933 6.11522 5.93742 7.25452 5.93742 8.44246V10.8383H19.0624V8.44246C19.0624 7.25452 18.5905 6.11522 17.7505 5.27521C16.9105 4.43521 15.7712 3.9633 14.5833 3.9633H10.4166Z" fill="#5B00CE"/>
<path fill-rule="evenodd" clip-rule="evenodd" d="M8.33333 10.5298C6.1232 10.5298 4.00358 11.4078 2.44078 12.9706C0.877973 14.5334 0 16.653 0 18.8631V27.1964C0 29.4066 0.877973 31.5262 2.44078 33.089C4.00358 34.6518 6.1232 35.5298 8.33333 35.5298H16.6667C18.8768 35.5298 20.9964 34.6518 22.5592 33.089C24.122 31.5262 25 29.4066 25 27.1964V18.8631C25 16.653 24.122 14.5334 22.5592 12.9706C20.9964 11.4078 18.8768 10.5298 16.6667 10.5298H8.33333ZM12.5 27.1964C13.6051 27.1964 14.6649 26.7575 15.4463 25.9761C16.2277 25.1947 16.6667 24.1349 16.6667 23.0298C16.6667 21.9247 16.2277 20.8649 15.4463 20.0835C14.6649 19.3021 13.6051 18.8631 12.5 18.8631C11.3949 18.8631 10.3351 19.3021 9.55372 20.0835C8.77232 20.8649 8.33333 21.9247 8.33333 23.0298C8.33333 24.1349 8.77232 25.1947 9.55372 25.9761C10.3351 26.7575 11.3949 27.1964 12.5 27.1964Z" fill="#5B00CE"/>
</svg>
