<svg width="44" height="44" viewBox="0 0 44 44" fill="none" xmlns="http://www.w3.org/2000/svg">
<circle cx="22" cy="22" r="22" fill="#F6EFFF"/>
<path fill-rule="evenodd" clip-rule="evenodd" d="M33.1943 14.7829C33.4889 15.0776 33.6544 15.4772 33.6544 15.8939C33.6544 16.3106 33.4889 16.7102 33.1943 17.0049L21.4159 28.7833C21.2602 28.939 21.0754 29.0625 20.872 29.1467C20.6686 29.231 20.4507 29.2743 20.2305 29.2743C20.0103 29.2743 19.7923 29.231 19.589 29.1467C19.3856 29.0625 19.2008 28.939 19.0451 28.7833L13.1931 22.9323C13.043 22.7874 12.9233 22.614 12.841 22.4222C12.7586 22.2305 12.7153 22.0243 12.7134 21.8157C12.7116 21.607 12.7514 21.4001 12.8304 21.207C12.9094 21.0138 13.0261 20.8384 13.1736 20.6908C13.3212 20.5433 13.4966 20.4266 13.6898 20.3476C13.8829 20.2686 14.0898 20.2288 14.2985 20.2306C14.5071 20.2324 14.7133 20.2758 14.905 20.3582C15.0968 20.4405 15.2702 20.5602 15.4151 20.7103L20.23 25.5252L30.9712 14.7829C31.1171 14.6369 31.2904 14.521 31.4811 14.442C31.6719 14.3629 31.8763 14.3223 32.0827 14.3223C32.2892 14.3223 32.4936 14.3629 32.6843 14.442C32.875 14.521 33.0483 14.6369 33.1943 14.7829Z" fill="#5B00CE"/>
</svg>
