<svg width="40" height="40" viewBox="0 0 40 40" fill="none" xmlns="http://www.w3.org/2000/svg">
<path d="M34.2168 16.7859C34.2649 11.1464 29.4617 5.97642 23.5097 5.26151C23.3914 5.24747 23.2624 5.22611 23.1259 5.2035C22.8312 5.15468 22.5265 5.10449 22.2191 5.10449C20.9992 5.10449 20.6731 5.96139 20.5873 6.47244C20.5038 6.96934 20.5834 7.3866 20.8235 7.71319C21.2275 8.2625 21.9383 8.36002 22.5093 8.43816C22.6766 8.46126 22.8345 8.48275 22.9666 8.51244C28.3142 9.70735 30.1148 11.586 30.9948 16.8881C31.0163 17.0177 31.026 17.1773 31.0363 17.3466C31.0747 17.9804 31.1547 19.299 32.5724 19.299H32.5725C32.6905 19.299 32.8173 19.2888 32.9494 19.2687C34.2695 19.0681 34.2281 17.8628 34.2083 17.2836C34.2027 17.1205 34.1973 16.9662 34.2111 16.8636C34.2148 16.8378 34.2167 16.8118 34.2168 16.7859Z" fill="#5B00CE"/>
<path d="M21.873 3.19106C22.0314 3.20248 22.1813 3.21342 22.3062 3.23255C31.0874 4.58298 35.1258 8.74348 36.2449 17.5934C36.2639 17.7438 36.2669 17.9273 36.27 18.1216C36.2812 18.813 36.3042 20.2514 37.8489 20.2812L37.8969 20.2817C38.3813 20.2817 38.7667 20.1357 39.0423 19.8472C39.5232 19.3442 39.4897 18.597 39.4626 17.9965C39.456 17.8492 39.4497 17.7104 39.4513 17.5889C39.5629 8.53776 31.7282 0.330186 22.6851 0.0249689C22.6475 0.0237267 22.6118 0.0257143 22.5756 0.0308075C22.5401 0.0352842 22.5043 0.0372353 22.4685 0.036646C22.3783 0.036646 22.2674 0.0288199 22.1498 0.0208696C22.0075 0.0111801 21.8463 0 21.6828 0C20.2427 0 19.9689 1.0236 19.9339 1.63379C19.8531 3.04397 21.2174 3.14323 21.873 3.19106ZM35.8212 29.0314C35.6325 28.8885 35.4457 28.7433 35.2607 28.5956C34.302 27.8241 33.282 27.1129 32.2955 26.4251C32.0908 26.2826 31.8863 26.1398 31.6821 25.9966C30.4185 25.1091 29.2824 24.6778 28.2092 24.6778C26.7636 24.6778 25.5032 25.4765 24.4629 27.0515C24.0021 27.7498 23.4429 28.0893 22.7539 28.0893C22.3464 28.0893 21.8834 27.973 21.378 27.7436C17.2993 25.894 14.3869 23.0583 12.7215 19.315C11.9164 17.5058 12.1774 16.3232 13.5942 15.3607C14.3988 14.8147 15.8965 13.798 15.7904 11.8512C15.6703 9.64037 10.7923 2.98832 8.73698 2.2328C7.8668 1.91279 6.95251 1.90981 6.01462 2.22534C3.65189 3.01963 1.95636 4.41453 1.11089 6.25901C0.293876 8.04124 0.33077 10.1339 1.2176 12.3108C3.78133 18.6047 7.3858 24.0922 11.9313 28.6205C16.3805 33.0533 21.8489 36.6843 28.1846 39.4124C28.7556 39.6581 29.3546 39.7922 29.792 39.8899C29.9411 39.9235 30.0698 39.952 30.1636 39.9778C30.2151 39.9918 30.2683 39.9994 30.3216 39.9999L30.3716 40.0001H30.3719C33.3518 40.0001 36.9298 37.2771 38.0287 34.1728C38.9914 31.4545 37.2336 30.1109 35.8212 29.0314ZM23.191 10.3806C22.6808 10.3935 21.6191 10.4199 21.2465 11.5012C21.0723 12.0066 21.0931 12.4453 21.3087 12.8053C21.6249 13.3335 22.2309 13.4954 22.7821 13.5842C24.781 13.905 25.8075 15.0103 26.0129 17.0625C26.1083 18.0194 26.7526 18.6876 27.58 18.6876C27.6411 18.6876 27.7037 18.684 27.7659 18.6764C28.761 18.558 29.2433 17.827 29.1997 16.5037C29.2156 15.1227 28.4929 13.5549 27.2637 12.3061C26.0303 11.0534 24.5434 10.3479 23.191 10.3806Z" fill="#5B00CE"/>
</svg>
