<svg width="27" height="27" viewBox="0 0 27 27" fill="none" xmlns="http://www.w3.org/2000/svg">
<path d="M24.4688 18.5625V5.0625C24.4692 4.72997 24.404 4.40062 24.277 4.09331C24.1499 3.786 23.9635 3.50678 23.7284 3.27165C23.4932 3.03651 23.214 2.85008 22.9067 2.72303C22.5994 2.59598 22.27 2.53081 21.9375 2.53125H5.0625C4.72997 2.53081 4.40062 2.59598 4.09331 2.72303C3.786 2.85008 3.50678 3.03651 3.27165 3.27165C3.03651 3.50678 2.85008 3.786 2.72303 4.09331C2.59598 4.40062 2.53081 4.72997 2.53125 5.0625V18.5625C2.53081 18.895 2.59598 19.2244 2.72303 19.5317C2.85008 19.839 3.03651 20.1182 3.27165 20.3534C3.50678 20.5885 3.786 20.7749 4.09331 20.902C4.40062 21.029 4.72997 21.0942 5.0625 21.0938H21.9375C22.27 21.0942 22.5994 21.029 22.9067 20.902C23.214 20.7749 23.4932 20.5885 23.7284 20.3534C23.9635 20.1182 24.1499 19.839 24.277 19.5317C24.404 19.2244 24.4692 18.895 24.4688 18.5625ZM13.5 16.875C12.4987 16.875 11.52 16.5781 10.6874 16.0218C9.8549 15.4655 9.20603 14.6749 8.82286 13.7498C8.43969 12.8248 8.33944 11.8069 8.53478 10.8249C8.73012 9.84283 9.21227 8.94078 9.92028 8.23277C10.6283 7.52477 11.5303 7.04261 12.5124 6.84728C13.4944 6.65194 14.5123 6.75219 15.4373 7.13536C16.3624 7.51853 17.153 8.1674 17.7093 8.99993C18.2656 9.83245 18.5625 10.8112 18.5625 11.8125C18.5585 13.1539 18.0238 14.4393 17.0753 15.3878C16.1268 16.3363 14.8414 16.871 13.5 16.875ZM18.5625 24.4688H20.25C20.3611 24.4699 20.4713 24.4488 20.5742 24.4068C20.6771 24.3648 20.7706 24.3027 20.8491 24.2241C20.9277 24.1456 20.9898 24.0521 21.0318 23.9492C21.0738 23.8463 21.0949 23.7361 21.0938 23.625V22.7813H17.7188V23.625C17.7176 23.7361 17.7387 23.8463 17.7807 23.9492C17.8227 24.0521 17.8848 24.1456 17.9634 24.2241C18.0419 24.3027 18.1354 24.3648 18.2383 24.4068C18.3412 24.4488 18.4514 24.4699 18.5625 24.4688ZM6.75 24.4688H8.4375C8.54862 24.4699 8.65884 24.4488 8.76172 24.4068C8.8646 24.3648 8.95806 24.3027 9.03664 24.2241C9.11521 24.1456 9.17732 24.0521 9.21932 23.9492C9.26133 23.8463 9.28238 23.7361 9.28125 23.625V22.7813H5.90625V23.625C5.90512 23.7361 5.92618 23.8463 5.96818 23.9492C6.01018 24.0521 6.07229 24.1456 6.15087 24.2241C6.22944 24.3027 6.32291 24.3648 6.42578 24.4068C6.52866 24.4488 6.63889 24.4699 6.75 24.4688Z" fill="#5B00CE"/>
<path d="M15.1875 10.9688H16.7568C16.5515 10.1734 16.0631 9.48022 15.3832 9.01919C14.7033 8.55815 13.8787 8.3609 13.0637 8.46441C12.2488 8.56791 11.4997 8.96507 10.9566 9.58144C10.4136 10.1978 10.114 10.9911 10.114 11.8125C10.114 12.634 10.4136 13.4272 10.9566 14.0436C11.4997 14.6599 12.2488 15.0571 13.0637 15.1606C13.8787 15.2641 14.7033 15.0669 15.3832 14.6058C16.0631 14.1448 16.5515 13.4516 16.7568 12.6563H15.1875C14.9637 12.6563 14.7491 12.5674 14.5908 12.4091C14.4326 12.2509 14.3437 12.0363 14.3437 11.8125C14.3437 11.5887 14.4326 11.3741 14.5908 11.2159C14.7491 11.0577 14.9637 10.9688 15.1875 10.9688Z" fill="#5B00CE"/>
</svg>
