<svg width="30" height="25" viewBox="0 0 30 25" fill="none" xmlns="http://www.w3.org/2000/svg">
<path fill-rule="evenodd" clip-rule="evenodd" d="M1.1875 10.9375C0.905707 10.9375 0.635456 11.0494 0.436199 11.2487C0.236942 11.448 0.125 11.7182 0.125 12C0.125 12.2818 0.236942 12.552 0.436199 12.7513C0.635456 12.9506 0.905707 13.0625 1.1875 13.0625H4.375C4.65679 13.0625 4.92704 12.9506 5.1263 12.7513C5.32556 12.552 5.4375 12.2818 5.4375 12C5.4375 11.7182 5.32556 11.448 5.1263 11.2487C4.92704 11.0494 4.65679 10.9375 4.375 10.9375H1.1875ZM1.1875 6.6875C0.905707 6.6875 0.635456 6.79944 0.436199 6.9987C0.236942 7.19796 0.125 7.46821 0.125 7.75C0.125 8.03179 0.236942 8.30204 0.436199 8.5013C0.635456 8.70056 0.905707 8.8125 1.1875 8.8125H6.5C6.78179 8.8125 7.05204 8.70056 7.2513 8.5013C7.45056 8.30204 7.5625 8.03179 7.5625 7.75C7.5625 7.46821 7.45056 7.19796 7.2513 6.9987C7.05204 6.79944 6.78179 6.6875 6.5 6.6875H1.1875ZM1.1875 2.4375C0.905707 2.4375 0.635456 2.54944 0.436199 2.7487C0.236942 2.94796 0.125 3.21821 0.125 3.5C0.125 3.78179 0.236942 4.05204 0.436199 4.2513C0.635456 4.45056 0.905707 4.5625 1.1875 4.5625H9.6875C9.96929 4.5625 10.2395 4.45056 10.4388 4.2513C10.6381 4.05204 10.75 3.78179 10.75 3.5C10.75 3.21821 10.6381 2.94796 10.4388 2.7487C10.2395 2.54944 9.96929 2.4375 9.6875 2.4375H1.1875ZM16.0625 0.3125C15.7807 0.3125 15.5105 0.424442 15.3112 0.623699C15.1119 0.822957 15 1.09321 15 1.375C15 1.65679 15.1119 1.92704 15.3112 2.1263C15.5105 2.32556 15.7807 2.4375 16.0625 2.4375H17.125V3.55313C11.7668 4.08969 7.5625 8.62869 7.5625 14.125C7.5625 19.9804 12.3321 24.75 18.1875 24.75C24.0429 24.75 28.8125 19.9804 28.8125 14.125C28.8144 11.6744 27.9648 9.29925 26.4091 7.40575L27.2039 6.61313L27.9551 7.36431C28.1543 7.5635 28.4245 7.6754 28.7062 7.6754C28.988 7.6754 29.2582 7.5635 29.4574 7.36431C29.6566 7.16506 29.7685 6.89486 29.7685 6.61313C29.7685 6.33139 29.6566 6.06119 29.4574 5.86194L28.0071 4.41269C27.9991 4.40298 27.991 4.39342 27.9827 4.384L26.4506 2.854C26.2512 2.65512 25.981 2.54353 25.6994 2.54375C25.4176 2.54381 25.1474 2.65579 24.9482 2.85506C24.749 3.05431 24.6371 3.32451 24.6371 3.60625C24.6371 3.88799 24.749 4.15819 24.9482 4.35744L25.6994 5.10862L24.9067 5.90338C23.2942 4.57921 21.3261 3.76151 19.25 3.55313V2.4375H20.3125C20.5943 2.4375 20.8645 2.32556 21.0638 2.1263C21.2631 1.92704 21.375 1.65679 21.375 1.375C21.375 1.09321 21.2631 0.822957 21.0638 0.623699C20.8645 0.424442 20.5943 0.3125 20.3125 0.3125H16.0625ZM18.1875 7.75C18.4693 7.75 18.7395 7.86194 18.9388 8.0612C19.1381 8.26046 19.25 8.53071 19.25 8.8125V14.125C19.2499 14.4068 19.138 14.677 18.9387 14.8762L15.7512 18.0637C15.5519 18.2629 15.2817 18.3748 15 18.3748C14.7183 18.3748 14.4481 18.2629 14.2488 18.0637C14.0496 17.8644 13.9377 17.5942 13.9377 17.3125C13.9377 17.0308 14.0496 16.7606 14.2488 16.5613L17.125 13.6851V8.8125C17.125 8.53071 17.2369 8.26046 17.4362 8.0612C17.6355 7.86194 17.9057 7.75 18.1875 7.75Z" fill="#EDFF24"/>
</svg>
