<svg width="113" height="18" viewBox="0 0 113 18" fill="none" xmlns="http://www.w3.org/2000/svg">
<path d="M9.875 0L12.2026 5.79629L18.4345 6.21885L13.6412 10.2237L15.1651 16.2812L9.875 12.96L4.58493 16.2812L6.10882 10.2237L1.31549 6.21885L7.54737 5.79629L9.875 0Z" fill="#E5E86B"/>
<path d="M33.2897 0L35.6173 5.79629L41.8492 6.21885L37.0559 10.2237L38.5797 16.2812L33.2897 12.96L27.9996 16.2812L29.5235 10.2237L24.7302 6.21885L30.962 5.79629L33.2897 0Z" fill="#E5E86B"/>
<path d="M56.7042 0L59.0319 5.79629L65.2637 6.21885L60.4704 10.2237L61.9943 16.2812L56.7042 12.96L51.4142 16.2812L52.938 10.2237L48.1447 6.21885L54.3766 5.79629L56.7042 0Z" fill="#E5E86B"/>
<path d="M80.1189 0L82.4465 5.79629L88.6784 6.21885L83.8851 10.2237L85.409 16.2812L80.1189 12.96L74.8288 16.2812L76.3527 10.2237L71.5594 6.21885L77.7913 5.79629L80.1189 0Z" fill="#E5E86B"/>
<path d="M103.534 0L105.861 5.79629L112.093 6.21885L107.3 10.2237L108.824 16.2812L103.534 12.96L98.2435 16.2812L99.7674 10.2237L94.9741 6.21885L101.206 5.79629L103.534 0Z" fill="#E5E86B"/>
</svg>
