<svg width="205" height="33" viewBox="0 0 205 33" fill="none" xmlns="http://www.w3.org/2000/svg">
<path d="M16.5 0L20.7673 10.6265L32.1924 11.4012L23.4047 18.7435L26.1985 29.8488L16.5 23.76L6.80154 29.8488L9.59533 18.7435L0.807568 11.4012L12.2327 10.6265L16.5 0Z" fill="#E5E86B"/>
<path d="M59.5 0L63.7673 10.6265L75.1924 11.4012L66.4047 18.7435L69.1985 29.8488L59.5 23.76L49.8015 29.8488L52.5953 18.7435L43.8076 11.4012L55.2327 10.6265L59.5 0Z" fill="#E5E86B"/>
<path d="M102.5 0L106.767 10.6265L118.192 11.4012L109.405 18.7435L112.198 29.8488L102.5 23.76L92.8015 29.8488L95.5953 18.7435L86.8076 11.4012L98.2327 10.6265L102.5 0Z" fill="#E5E86B"/>
<path d="M145.5 0L149.767 10.6265L161.192 11.4012L152.405 18.7435L155.198 29.8488L145.5 23.76L135.802 29.8488L138.595 18.7435L129.808 11.4012L141.233 10.6265L145.5 0Z" fill="#E5E86B"/>
<path d="M188.5 0L192.767 10.6265L204.192 11.4012L195.405 18.7435L198.198 29.8488L188.5 23.76L178.802 29.8488L181.595 18.7435L172.808 11.4012L184.233 10.6265L188.5 0Z" fill="#E5E86B"/>
</svg>
