<svg width="20" height="19" viewBox="0 0 20 19" fill="none" xmlns="http://www.w3.org/2000/svg">
<path d="M5.01135 5.20931C5.05663 5.3063 5.12865 5.38836 5.21895 5.44584C5.30925 5.50333 5.41407 5.53385 5.52111 5.53384H8.25627V6.49997C8.25627 6.64915 8.31553 6.79223 8.42102 6.89771C8.52651 7.0032 8.66958 7.06247 8.81877 7.06247C8.96795 7.06247 9.11103 7.0032 9.21652 6.89771C9.32201 6.79223 9.38127 6.64915 9.38127 6.49997V5.53384H9.64037C9.78955 5.53384 9.93263 5.47457 10.0381 5.36909C10.1436 5.2636 10.2029 5.12052 10.2029 4.97134C10.2029 4.82215 10.1436 4.67908 10.0381 4.57359C9.93263 4.4681 9.78955 4.40884 9.64037 4.40884H9.38127V1.03331C9.38124 0.917852 9.34568 0.805199 9.27942 0.710645C9.21317 0.61609 9.11942 0.544216 9.0109 0.504779C8.90239 0.465341 8.78437 0.460252 8.67286 0.4902C8.56135 0.520149 8.46176 0.583686 8.38761 0.672185L5.08974 4.61021C5.02104 4.69227 4.97717 4.79222 4.96328 4.89834C4.94939 5.00446 4.96607 5.11234 5.01135 5.20931ZM8.25627 2.58117V4.40891H6.72574L8.25627 2.58117ZM11.1029 14.5296L14.0497 9.92883H11.88C11.7308 9.92883 11.5877 9.86956 11.4822 9.76407C11.3767 9.65858 11.3175 9.51551 11.3175 9.36633C11.3175 9.21714 11.3767 9.07407 11.4822 8.96858C11.5877 8.86309 11.7308 8.80383 11.88 8.80383H15.078C15.179 8.80383 15.278 8.83099 15.3649 8.88246C15.4517 8.93393 15.5231 9.00782 15.5715 9.09638C15.62 9.18493 15.6437 9.28489 15.6402 9.38577C15.6367 9.48665 15.6061 9.58473 15.5517 9.66972L12.0501 15.1365C12.0104 15.1989 11.9587 15.2528 11.8981 15.2952C11.8374 15.3376 11.769 15.3676 11.6968 15.3835C11.6245 15.3995 11.5499 15.401 11.477 15.388C11.4042 15.375 11.3347 15.3478 11.2724 15.3079C11.2101 15.268 11.1563 15.2162 11.114 15.1555C11.0718 15.0947 11.0419 15.0263 11.0262 14.954C11.0104 14.8817 11.0091 14.807 11.0222 14.7342C11.0354 14.6614 11.0628 14.5919 11.1028 14.5297L11.1029 14.5296ZM14.0476 4.19344C14.153 4.29892 14.2123 4.44199 14.2123 4.59118C14.2123 4.74036 14.153 4.88343 14.0476 4.98892L5.75567 13.2808C5.64997 13.3853 5.50723 13.4436 5.35864 13.4432C5.21005 13.4427 5.06767 13.3835 4.9626 13.2784C4.85753 13.1734 4.7983 13.031 4.79785 12.8824C4.7974 12.7338 4.85576 12.5911 4.96019 12.4854L13.252 4.19344C13.3042 4.14119 13.3662 4.09974 13.4345 4.07147C13.5027 4.04319 13.5759 4.02864 13.6498 4.02864C13.7236 4.02864 13.7968 4.04319 13.8651 4.07147C13.9333 4.09974 13.9953 4.14119 14.0476 4.19344ZM4.18166 3.01493C4.32404 2.49356 4.2338 2.10086 3.91345 1.84721C3.55486 1.5635 2.9578 1.51323 2.55417 1.7331C2.24754 1.90009 2.11166 2.18861 2.15033 2.59091C2.15739 2.66444 2.1499 2.73865 2.12828 2.80928C2.10667 2.87992 2.07135 2.94561 2.02435 3.0026C1.97734 3.05959 1.91958 3.10677 1.85434 3.14143C1.78911 3.17609 1.71768 3.19757 1.64415 3.20463C1.57062 3.21169 1.49641 3.2042 1.42577 3.18258C1.35514 3.16097 1.28945 3.12565 1.23246 3.07865C1.17547 3.03164 1.12829 2.97388 1.09363 2.90864C1.05897 2.84341 1.03749 2.77198 1.03043 2.69845C0.948127 1.84289 1.30739 1.13101 2.01603 0.745099C2.81144 0.311974 3.90294 0.404435 4.61141 0.964966C5.2888 1.50092 5.52765 2.35613 5.26679 3.31129C5.09073 3.95599 4.48808 4.42624 3.79023 4.97085C3.41349 5.26482 3.00716 5.5819 2.66646 5.93764H4.99658C5.14576 5.93764 5.28884 5.99691 5.39433 6.1024C5.49982 6.20788 5.55908 6.35096 5.55908 6.50014C5.55908 6.64933 5.49982 6.7924 5.39433 6.89789C5.28884 7.00338 5.14576 7.06264 4.99658 7.06264H1.5743C1.47896 7.06267 1.38519 7.03848 1.30177 6.99232C1.21836 6.94616 1.14805 6.87957 1.09743 6.79878C1.04682 6.71799 1.01757 6.62567 1.01243 6.53047C1.00729 6.43528 1.02643 6.34034 1.06805 6.25458C1.52596 5.31084 2.36113 4.65912 3.09797 4.0841C3.59265 3.69805 4.10396 3.29903 4.18166 3.01493ZM19 9.52903C19 11.3091 18.4722 13.0491 17.4833 14.5292C16.4943 16.0092 15.0887 17.1628 13.4442 17.844C11.7996 18.5252 9.99003 18.7034 8.24419 18.3561C6.49836 18.0089 4.89471 17.1517 3.63603 15.893C2.79769 15.0592 2.13305 14.0674 1.68058 12.9751C1.2281 11.8827 0.996788 10.7114 1.00002 9.52903C1.00002 9.37985 1.05928 9.23677 1.16477 9.13128C1.27026 9.02579 1.41333 8.96653 1.56252 8.96653C1.7117 8.96653 1.85478 9.02579 1.96027 9.13128C2.06575 9.23677 2.12502 9.37985 2.12502 9.52903C2.12502 13.8713 5.65773 17.404 10 17.404C14.3423 17.404 17.875 13.8713 17.875 9.52903C17.875 5.58675 14.9319 2.22999 11.0292 1.72083C10.9552 1.7122 10.8836 1.68896 10.8186 1.65244C10.7537 1.61592 10.6966 1.56686 10.6508 1.50811C10.6049 1.44935 10.5712 1.38208 10.5516 1.31018C10.532 1.23829 10.5269 1.16322 10.5365 1.08932C10.5461 1.01543 10.5704 0.944187 10.6078 0.879736C10.6452 0.815285 10.695 0.758909 10.7544 0.713884C10.8138 0.668859 10.8815 0.636082 10.9537 0.617456C11.0258 0.598831 11.101 0.594729 11.1747 0.605388C13.3395 0.890683 15.3268 1.95312 16.7664 3.59482C18.2061 5.23651 18.9999 7.34553 19 9.52903Z" fill="black" stroke="black" stroke-width="0.3"/>
</svg>
