<svg width="90" height="104" viewBox="0 0 90 104" fill="none" xmlns="http://www.w3.org/2000/svg">
<path fill-rule="evenodd" clip-rule="evenodd" d="M73.568 31.9857C62.5955 27.4589 50.5783 24.9671 37.9816 24.9671C25.3895 24.9671 13.3723 27.4594 2.39469 31.9857C-6.08861 59.4418 9.97399 96.5838 37.9816 103.709C65.9933 96.5838 82.0564 59.4418 73.568 31.9857ZM45.8896 65.6135C48.3405 63.4184 49.8874 60.2159 49.8874 56.6482C49.8874 50.0286 44.5604 44.6601 37.9816 44.6601C31.4074 44.6601 26.0758 50.0286 26.0758 56.6482C26.0758 60.2159 27.6227 63.4184 30.0782 65.6135L28.0866 84.0118C31.2429 84.8784 34.5591 85.3356 37.9816 85.3356C41.4087 85.3356 44.7249 84.8779 47.8766 84.0118L45.8896 65.6135Z" fill="#5B00CE"/>
<path fill-rule="evenodd" clip-rule="evenodd" d="M37.9816 24.9671C25.3895 24.9671 13.3723 27.4594 2.39473 31.9857C-2.68564 48.4273 1.03664 68.3438 10.8589 83.2086C9.5633 58.8137 31.1949 46.2468 32.8192 45.8473C34.3806 45.0882 36.1303 44.6596 37.9816 44.6596C39.833 44.6596 41.5878 45.0877 43.1492 45.8473C44.7684 46.2463 66.3999 58.8137 65.1094 83.2081C74.9271 68.3438 67.7054 52.9416 62.625 36.5C51.6521 31.9737 50.5784 24.9671 37.9816 24.9671Z" fill="#5B00CE"/>
<path fill-rule="evenodd" clip-rule="evenodd" d="M37.9813 85.3355C34.5588 85.3355 31.2431 84.8778 28.0863 84.0117C28.0863 84.0117 26.6508 96.8805 29.6188 100.541C32.2678 101.894 35.0619 102.964 37.9813 103.709C40.9059 102.965 43.6999 101.894 46.3485 100.541C49.3165 96.8805 47.8759 84.0117 47.8759 84.0117C44.7247 84.8778 41.4085 85.3355 37.9813 85.3355Z" fill="#5B00CE"/>
<path fill-rule="evenodd" clip-rule="evenodd" d="M0.973369 57.8063C9.22962 27.6438 66.7376 27.6438 74.9892 57.8063C76.4391 49.0357 76.0718 40.0896 73.5682 31.9857C62.5953 27.4589 50.578 24.9671 37.9813 24.9671C25.3892 24.9671 13.372 27.4594 2.3944 31.9857C-0.109189 40.0896 -0.476569 49.0357 0.973369 57.8063Z" fill="#5B00CE"/>
<path fill-rule="evenodd" clip-rule="evenodd" d="M43.1489 44.4555C41.5875 43.6964 39.8326 43.2678 37.9813 43.2678C36.1299 43.2678 34.3802 43.696 32.8189 44.4555C31.2286 44.8451 10.39 56.9449 10.8054 80.4193C11.2115 57.8547 31.2575 46.2319 32.8189 45.8474C34.3802 45.0883 36.1299 44.6597 37.9813 44.6597C39.8326 44.6597 41.5875 45.0878 43.1489 45.8474C44.7056 46.2319 64.7511 57.8547 65.1571 80.4193C65.5781 56.9449 44.7396 44.8451 43.1489 44.4555Z" fill="#5B00CE"/>
<path d="M88.624 22.8715L85.2183 19.3355C84.41 18.4962 83.7477 16.8375 83.7477 15.6479V10.6472C83.7477 8.2684 81.8763 6.32509 79.5861 6.32383H74.7686C73.6244 6.32383 72.0253 5.63474 71.2169 4.79602L67.8118 1.26008C66.1939 -0.420027 63.5448 -0.420027 61.9269 1.26008L58.5219 4.79855C57.7128 5.63791 56.1119 6.32509 54.9701 6.32509H50.1545C47.8668 6.32509 45.993 8.2684 45.993 10.6472V15.648C45.993 16.8329 45.3308 18.4968 44.5224 19.3356L41.1167 22.8716C39.4976 24.5517 39.4976 27.3026 41.1167 28.9853L44.5224 32.5213C45.3313 33.3606 45.993 35.0239 45.993 36.2089V41.2097C45.993 43.586 47.8668 45.5318 50.1545 45.5318H54.9703C56.1144 45.5318 57.7136 46.2195 58.522 47.0584L61.927 50.5956C63.5449 52.2744 66.194 52.2744 67.8119 50.5956L71.217 47.0584C72.026 46.219 73.6245 45.5318 74.7687 45.5318H79.5863C81.8764 45.5318 83.7478 43.586 83.7478 41.2097V36.2089C83.7478 35.0189 84.4106 33.3601 85.2184 32.5213L88.6241 28.9853C90.2407 27.3026 90.2407 24.5516 88.624 22.8715ZM61.5662 35.6506L52.3848 26.1151L55.3273 23.0601L61.5669 29.5395L74.411 16.2048L77.3528 19.2598L61.5662 35.6506Z" fill="white"/>
<path d="M84.9697 19.4831L82.0879 16.471C81.404 15.756 80.8435 14.343 80.8435 13.3297V9.06988C80.8435 7.04348 79.2601 5.38807 77.3222 5.38699H73.2459C72.2777 5.38699 70.9246 4.8 70.2406 4.08553L67.3594 1.07343C65.9903 -0.35777 63.7488 -0.35777 62.3798 1.07343L59.4986 4.08768C58.8141 4.80269 57.4594 5.38807 56.4933 5.38807H52.4186C50.4828 5.38807 48.8973 7.04348 48.8973 9.06988V13.3298C48.8973 14.3392 48.3369 15.7566 47.6529 16.4711L44.7712 19.4832C43.4011 20.9144 43.4011 23.2578 44.7712 24.6913L47.6529 27.7033C48.3374 28.4184 48.8973 29.8352 48.8973 30.8446V35.1046C48.8973 37.1288 50.4828 38.7864 52.4186 38.7864H56.4934C57.4616 38.7864 58.8147 39.3722 59.4987 40.0868L62.3799 43.1C63.7489 44.5301 65.9905 44.5301 67.3595 43.1L70.2407 40.0868C70.9252 39.3718 72.2778 38.7864 73.246 38.7864H77.3223C79.2602 38.7864 80.8436 37.1288 80.8436 35.1046V30.8446C80.8436 29.8309 81.4045 28.4179 82.088 27.7033L84.9698 24.6913C86.3376 23.2578 86.3376 20.9143 84.9697 19.4831ZM62.0746 30.369L54.3058 22.2462L56.7956 19.6438L62.0752 25.1633L72.9433 13.8041L75.4325 16.4065L62.0746 30.369Z" fill="white"/>
<circle cx="65.625" cy="26.5" r="11.5" fill="white"/>
<path d="M86.8903 22.4767L84.0086 19.5955C83.3247 18.9116 82.7642 17.56 82.7642 16.5908V12.516C82.7642 10.5777 81.1807 8.99426 79.2429 8.99323H75.1666C74.1984 8.99323 72.8453 8.43174 72.1613 7.74832L69.2801 4.86714C67.9111 3.49814 65.6696 3.49814 64.3006 4.86714L61.4194 7.75039C60.7349 8.43432 59.3802 8.99426 58.4141 8.99426H54.3394C52.4037 8.99426 50.8182 10.5777 50.8182 12.516V16.5909C50.8182 17.5563 50.2578 18.9121 49.5738 19.5956L46.6921 22.4768C45.322 23.8458 45.322 26.0873 46.6921 27.4585L49.5738 30.3397C50.2582 31.0236 50.8182 32.3789 50.8182 33.3444V37.4192C50.8182 39.3555 52.4037 40.941 54.3394 40.941H58.4142C59.3824 40.941 60.7355 41.5014 61.4195 42.1849L64.3007 45.0671C65.6697 46.4351 67.9112 46.4351 69.2802 45.0671L72.1614 42.1849C72.8459 41.501 74.1985 40.941 75.1667 40.941H79.243C81.1808 40.941 82.7643 39.3555 82.7643 37.4192V33.3444C82.7643 32.3747 83.3252 31.0232 84.0087 30.3397L86.8904 27.4585C88.2583 26.0873 88.2583 23.8457 86.8903 22.4767ZM63.9954 32.8895L56.2266 25.1197L58.7164 22.6304L63.996 27.91L74.864 17.0445L77.3532 19.5338L63.9954 32.8895Z" fill="#08A735"/>
</svg>
