<svg viewBox="0 0 63 71" fill="none" xmlns="http://www.w3.org/2000/svg">
<path fill-rule="evenodd" clip-rule="evenodd" d="M50.9265 21.8977C43.4147 18.7987 35.1876 17.0928 26.5638 17.0928C17.9432 17.0928 9.71617 18.799 2.20088 21.8977C-3.60683 40.6943 7.38971 66.1219 26.5638 71.0002C45.7408 66.1219 56.7377 40.6943 50.9265 21.8977ZM31.9777 44.9195C33.6556 43.4167 34.7146 41.2243 34.7146 38.7818C34.7146 34.25 31.0677 30.5747 26.5638 30.5747C22.0631 30.5747 18.4131 34.25 18.4131 38.7818C18.4131 41.2243 19.4721 43.4167 21.1532 44.9195L19.7897 57.5151C21.9505 58.1083 24.2208 58.4213 26.5638 58.4213C28.9101 58.4213 31.1804 58.108 33.338 57.5151L31.9777 44.9195Z" fill="#5B00CE"/>
<path fill-rule="evenodd" clip-rule="evenodd" d="M26.5639 17.0928C17.9433 17.0928 9.71621 18.799 2.20091 21.8977C-1.27714 33.1538 1.27115 46.7887 7.99553 56.9652C7.10855 40.2643 21.9176 31.661 23.0296 31.3875C24.0986 30.8678 25.2964 30.5744 26.5639 30.5744C27.8313 30.5744 29.0327 30.8675 30.1016 31.3875C31.2101 31.6606 46.0192 40.2643 45.1357 56.9649C51.8569 46.7887 54.4049 33.1534 50.9268 21.8974C43.4147 18.7987 35.1877 17.0928 26.5639 17.0928Z" fill="#5B00CE"/>
<path fill-rule="evenodd" clip-rule="evenodd" d="M26.5638 58.4209C24.2207 58.4209 21.9507 58.1076 19.7896 57.5146C19.7896 57.5146 18.8069 66.3247 20.8387 68.8305C22.6523 69.7567 24.5651 70.4897 26.5638 70.9998C28.566 70.4901 30.4788 69.757 32.292 68.8305C34.3239 66.3247 33.3376 57.5146 33.3376 57.5146C31.1803 58.1076 28.91 58.4209 26.5638 58.4209Z" fill="#5B00CE"/>
<path fill-rule="evenodd" clip-rule="evenodd" d="M1.22801 39.5746C6.88029 18.9253 46.2505 18.9253 51.8996 39.5746C52.8923 33.5703 52.6408 27.4457 50.9268 21.8977C43.4147 18.7987 35.1876 17.0928 26.5638 17.0928C17.9432 17.0928 9.71616 18.799 2.20086 21.8977C0.48689 27.4457 0.235379 33.5703 1.22801 39.5746Z" fill="#5B00CE"/>
<path fill-rule="evenodd" clip-rule="evenodd" d="M30.1012 30.4342C29.0323 29.9145 27.8309 29.6211 26.5635 29.6211C25.2961 29.6211 24.0982 29.9142 23.0293 30.4342C21.9406 30.7009 7.6744 38.9845 7.95878 55.0552C8.23679 39.6074 21.9604 31.6503 23.0293 31.3871C24.0982 30.8674 25.2961 30.574 26.5635 30.574C27.8309 30.574 29.0323 30.8671 30.1012 31.3871C31.167 31.6503 44.8902 39.6074 45.1682 55.0552C45.4564 38.9845 31.1903 30.7009 30.1012 30.4342Z" fill="#5B00CE"/>
<path d="M61.234 15.6579L58.9024 13.2372C58.3491 12.6626 57.8956 11.527 57.8956 10.7126V7.28914C57.8956 5.66059 56.6145 4.33019 55.0466 4.32932H51.7485C50.9652 4.32932 49.8704 3.85757 49.317 3.28338L46.9859 0.862658C45.8782 -0.287553 44.0647 -0.287553 42.957 0.862658L40.6259 3.28511C40.0721 3.85974 38.976 4.33019 38.1944 4.33019H34.8976C33.3314 4.33019 32.0486 5.66059 32.0486 7.28914V10.7127C32.0486 11.5239 31.5952 12.663 31.0418 13.2373L28.7103 15.658C27.6018 16.8082 27.6018 18.6915 28.7103 19.8435L31.0418 22.2642C31.5956 22.8389 32.0486 23.9775 32.0486 24.7888V28.2124C32.0486 29.8392 33.3314 31.1713 34.8976 31.1713H38.1945C38.9778 31.1713 40.0726 31.6421 40.626 32.2164L42.9571 34.638C44.0648 35.7873 45.8783 35.7873 46.986 34.638L49.3171 32.2164C49.8709 31.6418 50.9653 31.1713 51.7486 31.1713H55.0467C56.6146 31.1713 57.8957 29.8392 57.8957 28.2124V24.7888C57.8957 23.9741 58.3495 22.8385 58.9025 22.2642L61.2341 19.8435C62.3408 18.6915 62.3408 16.8081 61.234 15.6579ZM42.7101 24.4066L36.4245 17.8785L38.4389 15.7871L42.7106 20.2229L51.5037 11.0939L53.5177 13.1854L42.7101 24.4066Z" fill="white"/>
<path d="M60.0471 15.3874L58.0743 13.4149C57.606 12.9467 57.2223 12.0214 57.2223 11.3579V8.5683C57.2223 7.24132 56.1383 6.15727 54.8117 6.15656H52.021C51.3582 6.15656 50.4318 5.77217 49.9635 5.3043L47.9911 3.33182C47.0538 2.3946 45.5193 2.3946 44.5821 3.33182L42.6096 5.30571C42.1409 5.77393 41.2135 6.15727 40.5522 6.15727H37.7626C36.4374 6.15727 35.3519 7.24132 35.3519 8.5683V11.3579C35.3519 12.0189 34.9683 12.9471 34.5 13.415L32.5272 15.3875C31.5892 16.3247 31.5892 17.8593 32.5272 18.798L34.5 20.7704C34.9686 21.2387 35.3519 22.1665 35.3519 22.8275V25.6172C35.3519 26.9427 36.4374 28.0282 37.7626 28.0282H40.5522C41.215 28.0282 42.1414 28.4118 42.6097 28.8797L44.5821 30.8529C45.5194 31.7894 47.0539 31.7894 47.9911 30.8529L49.9636 28.8797C50.4322 28.4115 51.3582 28.0282 52.021 28.0282H54.8117C56.1384 28.0282 57.2224 26.9427 57.2224 25.6172V22.8275C57.2224 22.1637 57.6064 21.2384 58.0743 20.7704L60.0471 18.798C60.9836 17.8593 60.9836 16.3246 60.0471 15.3874ZM44.3731 22.5161L39.0546 17.1968L40.7591 15.4926L44.3735 19.1071L51.8138 11.6685L53.5179 13.3727L44.3731 22.5161Z" fill="#5B00CE"/>
</svg>
