<svg width="1668" height="819" viewBox="0 0 1668 819" fill="none" xmlns="http://www.w3.org/2000/svg">
<path d="M1137.83 89.9195C1153.8 87.8497 1172.26 80.048 1185.09 69.9634C1190.5 65.7149 1189.02 56.7682 1188.88 50.6375C1188.66 41.465 1177.7 30.0948 1171.34 24.6946C1156.37 12.0057 1136.1 2.4447 1116.3 1.16741C1093.95 -0.27454 1072.8 7.39672 1069.98 32.0468C1065.8 68.5838 1088.91 92.8833 1124.6 99.3724C1154.81 104.865 1176.95 99.0098 1201.48 81.0968C1213.13 72.5932 1221.23 59.4511 1231.41 49.2721C1246.99 33.6911 1266.43 24.9292 1287.19 18.1826C1316.22 8.74666 1348.29 8.62469 1378.56 8.62469C1404.03 8.62469 1426.03 13.6201 1449.67 22.9091C1499.18 42.3597 1530.62 84.9384 1534.43 137.394C1536.4 164.484 1527.2 190.51 1501.87 203.354C1466.31 221.383 1427.15 226.685 1389.7 239.17C1376.66 243.516 1361.89 247.313 1353.36 259.021C1344.25 271.517 1345.43 291.762 1345.9 306.496C1346.8 334.971 1366.11 360.947 1381.92 383.379C1400.24 409.35 1427.75 424.804 1455.66 438.836C1511.15 466.743 1577.46 489.151 1622.03 534.205C1636.93 549.269 1647.49 571.592 1656.37 590.503C1667.29 613.739 1669.17 641.045 1665.09 666.126C1661.8 686.328 1648.26 697.659 1630.01 706.248C1615.97 712.855 1600.43 716.34 1585.58 720.532C1565.86 726.098 1546.34 732.026 1525.82 733.766C1499.92 735.963 1467.86 738.572 1442.11 733.031C1414.29 727.045 1388.62 712.852 1363.65 699.946C1307.21 670.773 1250.36 642.014 1197.91 606.047C1150.35 573.437 1086.39 539.505 1026.81 555.842C967.858 572.007 938.907 626.413 904.869 672.218C890.016 692.205 872.186 709.048 856.134 727.99C841.561 745.186 828.282 759.797 808.659 771.158C785.019 784.844 760.548 795.579 736.292 808.234C714.452 819.629 682.385 817.827 658.358 815.691C642.592 814.29 627.901 806.311 612.879 801.827C596.289 796.875 579.223 792.292 562.884 786.703C539.834 778.817 510.328 773.449 491.357 757.189C473.879 742.207 463.27 720.968 445.668 706.038C422.559 686.436 389.997 672.883 362.588 660.664C338.262 649.82 305.061 642.178 278.457 642.178C220.61 642.178 178.984 690.762 129.311 713.6C94.1702 729.757 62.2935 734.879 40.0341 697.005C8.32401 643.051 -4.04796 581.607 2.85277 519.501C6.51912 486.504 18.8098 449.903 34.9926 420.981C48.6437 396.583 69.0853 377.834 90.1345 359.957C112.584 340.89 136.579 331.719 163.342 320.36C192.694 307.902 221.432 295.988 251.674 285.699C279.714 276.16 305.527 263.247 332.654 251.669C357.291 241.153 383.336 231.387 406.806 218.479C436.93 201.911 445.873 160.897 438.946 129.412C434.677 110.005 419.795 96.7456 413.738 78.5761" stroke="#E5E3F9" stroke-width="1.5" stroke-linecap="round"/>
</svg>
